<svg width="1000" height="1000" viewBox="0 0 1000 1000" xmlns="http://www.w3.org/2000/svg"><defs/><path fill="#435334" d="M 0 0 L 1000 0 L 1000 1000 L 0 1000 Z"/><path fill="#ffffff" transform="matrix(0.8632185342932318 0 0 0.8632185342932318 7.386642828678546 -1945.9615889654353)" d="M 166.50794152146 2643.0203420762 C 181.00794152146 2673.0203420762 224.70794152146 2700.1203420762 279.30794152146 2763.5203420762 C 286.80794152146 2772.2203420762 275.80794152146 2776.3203420762 280.90794152146 2791.4203420762 C 284.40794152146 2801.7203420762 317.00794152146 2834.3203420762 332.90794152146 2848.3203420762 C 333.90794152146 2847.5203420762 335.00794152146 2846.9203420762 336.30794152146 2846.4203420762 C 325.90794152146 2832.8203420762 304.30794152146 2807.2203420762 307.10794152146 2804.5203420762 C 309.20794152146 2802.5203420762 331.00794152146 2827.9203420762 343.20794152146 2840.6203420762 C 343.70794152146 2840.2203420762 344.20794152146 2839.7203420762 344.80794152146 2839.3203420762 C 345.40794152146 2838.8203420762 346.10794152146 2838.4203420762 346.80794152146 2838.0203420762 C 336.20794152146 2824.0203420762 314.60794152146 2797.9203420762 317.00794152146 2796.0203420762 C 319.70794152146 2793.9203420762 341.50794152146 2820.0203420762 353.40794152146 2832.7203420762 C 354.60794152146 2831.8203420762 355.90794152146 2830.9203420762 357.20794152146 2830.1203420762 C 347.20794152146 2815.9203420762 325.30794152146 2788.7203420762 326.90794152146 2787.5203420762 C 330.30794152146 2784.9203420762 352.70794152146 2812.0203420762 364.20794152146 2824.6203420762 C 365.30794152146 2823.8203420762 366.40794152146 2823.2203420762 367.30794152146 2822.4203420762 C 357.10794152146 2805.5203420762 329.00794152146 2768.9203420762 320.20794152146 2761.9203420762 C 309.00794152146 2752.9203420762 298.20794152146 2764.4203420762 289.20794152146 2753.9203420762 C 281.80794152146 2745.3203420762 275.10794152146 2737.1203420762 269.00794152146 2729.3203420762 C 267.10794152146 2726.9203420762 249.10794152146 2702.6203420762 247.70794152146 2700.6203420762 C 222.30794152146 2664.7203420762 208.20794152146 2639.1203420762 187.50794152146 2624.9203420762 C 175.00794152146 2616.4203420762 160.80794152146 2631.2203420762 166.50794152146 2643.0203420762 Z"/><path fill="#ffffff" transform="matrix(0.8632185342932318 0 0 0.8632185342932318 7.386642828678546 -1945.9615889654353)" d="M 353.30794152146 2715.9203420762 C 362.10794152146 2713.5203420762 371.30794152146 2711.9203420762 380.50794152146 2711.1203420762 C 389.70794152146 2710.3203420762 399.00794152146 2710.4203420762 408.30794152146 2711.2203420762 C 417.60794152146 2712.1203420762 426.80794152146 2713.8203420762 435.80794152146 2716.2203420762 C 444.80794152146 2718.6203420762 453.70794152146 2721.8203420762 462.20794152146 2725.9203420762 C 479.20794152146 2733.9203420762 495.00794152146 2744.9203420762 508.40794152146 2758.3203420762 C 521.80794152146 2771.7203420762 533.00794152146 2787.6203420762 541.10794152146 2804.8203420762 C 549.20794152146 2822.1203420762 554.50794152146 2840.8203420762 556.30794152146 2859.9203420762 C 557.20794152146 2869.5203420762 557.30794152146 2879.1203420762 556.60794152146 2888.7203420762 C 555.90794152146 2898.3203420762 554.30794152146 2907.8203420762 551.90794152146 2917.1203420762 C 547.30794152146 2935.8203420762 539.30794152146 2953.6203420762 528.60794152146 2969.7203420762 C 517.90794152146 2985.7203420762 504.30794152146 2999.8203420762 488.90794152146 3011.3203420762 C 473.40794152146 3022.8203420762 456.00794152146 3031.6203420762 437.60794152146 3037.2203420762 C 419.20794152146 3042.9203420762 399.90794152146 3045.3203420762 380.70794152146 3044.5203420762 C 371.10794152146 3044.1203420762 361.60794152146 3042.8203420762 352.20794152146 3040.7203420762 C 347.50794152146 3039.7203420762 342.90794152146 3038.4203420762 338.40794152146 3037.0203420762 C 333.80794152146 3035.6203420762 329.30794152146 3034.0203420762 324.90794152146 3032.2203420762 C 307.20794152146 3025.0203420762 290.80794152146 3014.7203420762 276.60794152146 3002.0203420762 C 269.50794152146 2995.7203420762 263.00794152146 2988.7203420762 257.10794152146 2981.3203420762 C 251.20794152146 2973.8203420762 246.00794152146 2965.9203420762 241.50794152146 2957.6203420762 C 232.50794152146 2941.0203420762 226.20794152146 2922.9203420762 223.40794152146 2904.4203420762 C 217.50794152146 2867.3203420762 225.10794152146 2828.7203420762 244.10794152146 2797.3203420762 C 244.30794152146 2797.0203420762 244.70794152146 2796.9203420762 244.90794152146 2797.1203420762 C 245.20794152146 2797.3203420762 245.30794152146 2797.6203420762 245.10794152146 2797.9203420762 C 237.20794152146 2814.3203420762 232.10794152146 2831.8203420762 229.80794152146 2849.6203420762 C 227.60794152146 2867.4203420762 228.30794152146 2885.5203420762 232.10794152146 2902.8203420762 C 235.90794152146 2920.1203420762 242.40794152146 2936.8203420762 251.50794152146 2951.9203420762 C 256.00794152146 2959.4203420762 261.20794152146 2966.6203420762 266.90794152146 2973.2203420762 C 272.60794152146 2979.9203420762 278.80794152146 2986.0203420762 285.50794152146 2991.6203420762 C 298.90794152146 3002.8203420762 314.20794152146 3011.7203420762 330.50794152146 3017.7203420762 C 334.60794152146 3019.2203420762 338.70794152146 3020.6203420762 342.80794152146 3021.8203420762 C 347.00794152146 3023.0203420762 351.20794152146 3024.0203420762 355.50794152146 3024.8203420762 C 364.00794152146 3026.5203420762 372.60794152146 3027.4203420762 381.30794152146 3027.6203420762 C 415.90794152146 3028.6203420762 450.50794152146 3017.4203420762 478.00794152146 2996.7203420762 C 505.60794152146 2976.1203420762 525.80794152146 2946.0203420762 534.50794152146 2912.6203420762 C 536.70794152146 2904.3203420762 538.20794152146 2895.8203420762 539.00794152146 2887.2203420762 C 539.80794152146 2878.6203420762 539.90794152146 2870.0203420762 539.20794152146 2861.4203420762 C 537.90794152146 2844.2203420762 533.70794152146 2827.1203420762 526.80794152146 2811.2203420762 C 513.10794152146 2779.3203420762 488.40794152146 2751.9203420762 457.30794152146 2735.0203420762 C 426.30794152146 2718.0203420762 389.30794152146 2711.5203420762 353.30794152146 2717.1203420762 C 353.00794152146 2717.2203420762 352.70794152146 2716.9203420762 352.60794152146 2716.6203420762 C 352.80794152146 2716.2203420762 353.00794152146 2716.0203420762 353.30794152146 2715.9203420762 L 353.30794152146 2715.9203420762 Z"/><path fill="#ffffff" transform="matrix(0.8632185342932318 0 0 0.8632185342932318 7.386642828678546 -1945.9615889654353)" d="M 484.30794152146 2892.2203420762 C 481.70794152146 2884.5203420762 480.70794152146 2876.3203420762 478.10794152146 2869.0203420762 C 476.60794152146 2864.8203420762 475.40794152146 2860.1203420762 473.50794152146 2855.9203420762 C 471.60794152146 2851.3203420762 468.20794152146 2848.8203420762 464.80794152146 2845.1203420762 C 461.70794152146 2841.4203420762 459.80794152146 2837.2203420762 455.70794152146 2834.4203420762 C 451.60794152146 2832.0203420762 447.10794152146 2829.9203420762 442.90794152146 2827.5203420762 C 434.70794152146 2823.4203420762 425.30794152146 2819.4203420762 422.50794152146 2809.7203420762 C 420.30794152146 2802.0203420762 419.10794152146 2791.0203420762 411.90794152146 2785.2203420762 C 408.10794152146 2782.7203420762 401.70794152146 2781.3203420762 397.50794152146 2782.4203420762 C 392.40794152146 2783.8203420762 393.40794152146 2788.8203420762 389.70794152146 2791.5203420762 C 386.00794152146 2794.2203420762 380.60794152146 2792.1203420762 376.50794152146 2793.6203420762 C 371.70794152146 2795.4203420762 367.10794152146 2801.1203420762 366.20794152146 2806.0203420762 C 365.10794152146 2811.7203420762 367.50794152146 2815.4203420762 361.60794152146 2818.8203420762 C 357.60794152146 2821.0203420762 353.20794152146 2822.6203420762 349.20794152146 2825.0203420762 C 340.00794152146 2830.5203420762 335.90794152146 2841.1203420762 326.30794152146 2845.3203420762 C 322.00794152146 2847.2203420762 317.30794152146 2849.6203420762 313.90794152146 2853.0203420762 C 310.40794152146 2856.5203420762 309.70794152146 2861.6203420762 307.20794152146 2865.7203420762 C 302.10794152146 2874.1203420762 290.70794152146 2887.4203420762 296.70794152146 2897.4203420762 C 299.40794152146 2901.5203420762 300.40794152146 2904.2203420762 300.00794152146 2909.4203420762 C 299.70794152146 2913.2203420762 298.10794152146 2915.7203420762 299.80794152146 2919.4203420762 C 300.60794152146 2921.1203420762 302.10794152146 2923.3203420762 303.80794152146 2925.1203420762 L 301.90794152146 2923.5203420762 C 302.60794152146 2924.2203420762 303.40794152146 2924.9203420762 304.20794152146 2925.5203420762 C 305.30794152146 2926.6203420762 306.40794152146 2927.6203420762 307.40794152146 2928.2203420762 L 306.20794152146 2927.1203420762 C 313.00794152146 2932.3203420762 321.30794152146 2936.3203420762 329.50794152146 2937.9203420762 C 334.30794152146 2939.1203420762 339.90794152146 2939.5203420762 344.40794152146 2941.5203420762 C 348.90794152146 2943.5203420762 353.10794152146 2946.4203420762 357.20794152146 2948.8203420762 C 375.00794152146 2958.9203420762 396.50794152146 2951.6203420762 415.50794152146 2951.7203420762 C 434.50794152146 2951.8203420762 455.10794152146 2947.8203420762 470.80794152146 2935.9203420762 C 474.90794152146 2932.8203420762 473.10794152146 2929.4203420762 475.50794152146 2925.3203420762 C 477.90794152146 2920.8203420762 484.60794152146 2921.0203420762 487.50794152146 2916.9203420762 C 493.50794152146 2908.1203420762 487.30794152146 2900.3203420762 484.30794152146 2892.2203420762 Z M 322.30794152146 2874.1203420762 C 320.30794152146 2878.8203420762 318.40794152146 2883.4203420762 317.90794152146 2888.2203420762 C 317.80794152146 2888.8203420762 317.80794152146 2889.4203420762 317.70794152146 2890.0203420762 L 317.70794152146 2890.2203420762 L 317.70794152146 2890.3203420762 L 317.70794152146 2890.3203420762 L 317.70794152146 2890.4203420762 L 317.70794152146 2890.9203420762 C 317.70794152146 2891.3203420762 317.70794152146 2891.5203420762 317.70794152146 2891.7203420762 C 317.70794152146 2892.8203420762 317.90794152146 2894.0203420762 318.10794152146 2895.1203420762 C 318.50794152146 2897.4203420762 319.30794152146 2899.7203420762 320.20794152146 2902.1203420762 C 322.00794152146 2906.8203420762 324.40794152146 2911.7203420762 325.30794152146 2917.0203420762 C 325.30794152146 2917.1203420762 325.20794152146 2917.2203420762 325.10794152146 2917.2203420762 C 325.00794152146 2917.2203420762 324.90794152146 2917.2203420762 324.90794152146 2917.1203420762 C 322.00794152146 2912.7203420762 318.80794152146 2908.7203420762 316.20794152146 2903.9203420762 C 314.90794152146 2901.5203420762 313.80794152146 2899.0203420762 313.10794152146 2896.2203420762 C 312.80794152146 2894.8203420762 312.50794152146 2893.4203420762 312.50794152146 2891.9203420762 C 312.50794152146 2891.5203420762 312.50794152146 2891.1203420762 312.50794152146 2890.8203420762 L 312.50794152146 2890.3203420762 L 312.50794152146 2890.2203420762 L 312.50794152146 2890.0203420762 L 312.50794152146 2889.7203420762 C 312.60794152146 2889.0203420762 312.60794152146 2888.3203420762 312.70794152146 2887.6203420762 C 313.50794152146 2882.0203420762 315.90794152146 2876.9203420762 318.80794152146 2872.4203420762 C 321.60794152146 2867.9203420762 324.80794152146 2863.8203420762 327.90794152146 2859.5203420762 C 328.00794152146 2859.4203420762 328.10794152146 2859.4203420762 328.20794152146 2859.5203420762 C 328.30794152146 2859.5203420762 328.30794152146 2859.6203420762 328.30794152146 2859.7203420762 C 326.80794152146 2864.6203420762 324.30794152146 2869.4203420762 322.30794152146 2874.1203420762 Z M 384.30794152146 2836.5203420762 C 384.20794152146 2836.8203420762 384.10794152146 2837.2203420762 384.00794152146 2837.6203420762 C 383.10794152146 2840.3203420762 381.60794152146 2842.7203420762 379.90794152146 2844.8203420762 C 378.20794152146 2846.9203420762 376.20794152146 2848.7203420762 374.10794152146 2850.3203420762 C 370.00794152146 2853.5203420762 365.60794152146 2856.0203420762 361.80794152146 2858.5203420762 C 354.00794152146 2863.8203420762 346.70794152146 2869.9203420762 342.60794152146 2878.0203420762 C 341.60794152146 2880.0203420762 340.80794152146 2882.1203420762 340.20794152146 2884.4203420762 C 339.60794152146 2886.6203420762 339.10794152146 2888.9203420762 338.90794152146 2891.3203420762 C 338.60794152146 2893.6203420762 338.50794152146 2896.0203420762 338.60794152146 2898.4203420762 C 338.70794152146 2900.8203420762 338.90794152146 2903.2203420762 339.30794152146 2905.5203420762 L 339.30794152146 2905.7203420762 C 339.30794152146 2906.5203420762 339.50794152146 2907.4203420762 339.70794152146 2908.3203420762 C 339.90794152146 2909.2203420762 340.20794152146 2910.1203420762 340.30794152146 2911.1203420762 C 340.30794152146 2911.2203420762 340.20794152146 2911.3203420762 340.10794152146 2911.4203420762 C 340.00794152146 2911.4203420762 339.90794152146 2911.4203420762 339.90794152146 2911.3203420762 C 339.50794152146 2910.4203420762 339.10794152146 2909.6203420762 338.70794152146 2908.7203420762 C 338.30794152146 2907.8203420762 337.90794152146 2906.9203420762 337.70794152146 2905.9203420762 L 337.70794152146 2906.1203420762 C 336.80794152146 2903.8203420762 336.10794152146 2901.3203420762 335.70794152146 2898.8203420762 C 335.20794152146 2896.3203420762 335.00794152146 2893.8203420762 335.00794152146 2891.2203420762 C 335.00794152146 2886.1203420762 335.70794152146 2880.9203420762 337.70794152146 2876.0203420762 C 339.70794152146 2871.1203420762 342.80794152146 2866.7203420762 346.40794152146 2863.0203420762 C 350.00794152146 2859.3203420762 354.00794152146 2856.1203420762 358.20794152146 2853.3203420762 C 362.50794152146 2850.5203420762 366.70794152146 2848.2203420762 370.40794152146 2845.5203420762 C 374.20794152146 2842.8203420762 377.40794152146 2839.8203420762 379.20794152146 2836.0203420762 L 379.50794152146 2835.3203420762 C 379.60794152146 2835.1203420762 379.70794152146 2834.7203420762 379.80794152146 2834.5203420762 L 380.40794152146 2832.8203420762 L 381.60794152146 2829.4203420762 C 382.40794152146 2827.1203420762 383.20794152146 2824.8203420762 383.80794152146 2822.5203420762 C 385.20794152146 2817.9203420762 386.00794152146 2813.2203420762 386.30794152146 2808.3203420762 C 386.30794152146 2808.2203420762 386.40794152146 2808.1203420762 386.50794152146 2808.1203420762 C 386.60794152146 2808.1203420762 386.70794152146 2808.2203420762 386.70794152146 2808.3203420762 C 387.80794152146 2813.1203420762 387.80794152146 2818.3203420762 387.20794152146 2823.3203420762 C 386.90794152146 2825.8203420762 386.40794152146 2828.3203420762 385.90794152146 2830.7203420762 C 385.70794152146 2831.9203420762 385.30794152146 2833.1203420762 385.10794152146 2834.3203420762 L 384.70794152146 2836.1203420762 C 384.50794152146 2835.9203420762 384.40794152146 2836.1203420762 384.30794152146 2836.5203420762 Z M 407.70794152146 2855.0203420762 C 407.60794152146 2856.0203420762 407.50794152146 2857.1203420762 407.20794152146 2858.2203420762 L 407.00794152146 2859.0203420762 L 406.80794152146 2859.8203420762 C 406.70794152146 2860.3203420762 406.50794152146 2860.8203420762 406.40794152146 2861.3203420762 C 403.90794152146 2869.1203420762 400.00794152146 2876.0203420762 397.80794152146 2882.9203420762 C 396.80794152146 2886.2203420762 396.30794152146 2889.9203420762 396.10794152146 2893.6203420762 C 395.80794152146 2897.3203420762 395.90794152146 2901.1203420762 396.00794152146 2905.0203420762 C 396.00794152146 2908.7203420762 396.60794152146 2912.5203420762 396.90794152146 2916.5203420762 C 397.20794152146 2920.5203420762 397.20794152146 2924.7203420762 395.80794152146 2928.5203420762 C 395.70794152146 2928.7203420762 395.60794152146 2928.7203420762 395.40794152146 2928.7203420762 C 395.30794152146 2928.7203420762 395.20794152146 2928.5203420762 395.20794152146 2928.4203420762 C 395.30794152146 2920.5203420762 391.70794152146 2913.8203420762 390.60794152146 2905.4203420762 C 389.60794152146 2897.5203420762 389.10794152146 2889.3203420762 391.60794152146 2880.9203420762 C 394.20794152146 2872.9203420762 398.60794152146 2866.3203420762 401.60794152146 2859.5203420762 C 404.80794152146 2853.1203420762 404.50794152146 2845.2203420762 405.10794152146 2837.3203420762 C 405.10794152146 2837.1203420762 405.30794152146 2837.0203420762 405.40794152146 2837.0203420762 C 405.50794152146 2837.0203420762 405.60794152146 2837.1203420762 405.70794152146 2837.2203420762 C 406.60794152146 2841.0203420762 407.50794152146 2844.9203420762 407.80794152146 2848.9203420762 C 407.90794152146 2850.9203420762 407.90794152146 2853.0203420762 407.70794152146 2855.0203420762 Z M 434.50794152146 2909.9203420762 C 434.50794152146 2911.2203420762 434.50794152146 2912.6203420762 434.30794152146 2914.0203420762 C 434.20794152146 2914.7203420762 434.10794152146 2915.4203420762 434.00794152146 2916.1203420762 L 433.60794152146 2918.0203420762 C 433.10794152146 2920.4203420762 432.60794152146 2923.0203420762 431.90794152146 2925.5203420762 C 431.10794152146 2928.0203420762 430.20794152146 2930.5203420762 428.80794152146 2932.7203420762 C 428.70794152146 2932.8203420762 428.50794152146 2932.9203420762 428.40794152146 2932.8203420762 C 428.30794152146 2932.7203420762 428.20794152146 2932.6203420762 428.30794152146 2932.5203420762 C 429.20794152146 2927.4203420762 429.10794152146 2922.6203420762 429.40794152146 2917.4203420762 L 429.50794152146 2915.5203420762 C 429.50794152146 2914.9203420762 429.60794152146 2914.3203420762 429.60794152146 2913.8203420762 C 429.60794152146 2912.6203420762 429.60794152146 2911.4203420762 429.50794152146 2910.2203420762 C 429.30794152146 2907.8203420762 429.00794152146 2905.3203420762 428.80794152146 2902.7203420762 C 428.40794152146 2897.7203420762 427.90794152146 2892.8203420762 427.30794152146 2887.8203420762 C 426.60794152146 2882.9203420762 425.70794152146 2877.9203420762 424.90794152146 2872.8203420762 C 424.90794152146 2872.6203420762 425.00794152146 2872.5203420762 425.10794152146 2872.5203420762 C 425.20794152146 2872.5203420762 425.30794152146 2872.5203420762 425.40794152146 2872.6203420762 C 428.10794152146 2877.0203420762 430.00794152146 2881.9203420762 431.40794152146 2886.9203420762 C 432.80794152146 2891.9203420762 433.60794152146 2897.1203420762 434.00794152146 2902.2203420762 C 434.20794152146 2904.7203420762 434.50794152146 2907.3203420762 434.50794152146 2909.9203420762 Z M 461.60794152146 2900.4203420762 C 461.90794152146 2906.5203420762 461.30794152146 2912.8203420762 458.90794152146 2918.4203420762 C 458.80794152146 2918.5203420762 458.70794152146 2918.6203420762 458.60794152146 2918.5203420762 C 458.50794152146 2918.5203420762 458.40794152146 2918.3203420762 458.50794152146 2918.2203420762 C 459.70794152146 2912.4203420762 459.50794152146 2906.4203420762 458.50794152146 2900.7203420762 C 457.60794152146 2894.9203420762 455.90794152146 2889.3203420762 454.00794152146 2883.8203420762 C 451.90794152146 2878.3203420762 449.60794152146 2872.9203420762 446.80794152146 2867.9203420762 C 444.10794152146 2862.8203420762 440.70794152146 2858.2203420762 436.80794152146 2853.9203420762 C 433.00794152146 2849.6203420762 428.70794152146 2845.6203420762 424.10794152146 2842.0203420762 C 421.80794152146 2840.2203420762 419.30794152146 2838.4203420762 417.00794152146 2836.3203420762 C 414.70794152146 2834.2203420762 412.40794152146 2831.7203420762 410.80794152146 2828.7203420762 C 409.20794152146 2825.7203420762 408.40794152146 2822.3203420762 408.50794152146 2819.0203420762 C 408.50794152146 2818.2203420762 408.50794152146 2817.3203420762 408.60794152146 2816.6203420762 L 408.70794152146 2815.5203420762 C 408.70794152146 2815.1203420762 408.80794152146 2814.7203420762 408.80794152146 2814.3203420762 C 409.00794152146 2812.7203420762 409.40794152146 2811.2203420762 409.70794152146 2809.8203420762 C 410.00794152146 2808.4203420762 410.30794152146 2807.0203420762 410.30794152146 2805.6203420762 C 410.40794152146 2804.2203420762 410.20794152146 2802.8203420762 410.00794152146 2801.3203420762 C 409.60794152146 2798.5203420762 408.70794152146 2795.6203420762 406.90794152146 2793.3203420762 C 406.80794152146 2793.2203420762 406.80794152146 2793.0203420762 406.90794152146 2792.9203420762 C 407.00794152146 2792.8203420762 407.10794152146 2792.8203420762 407.20794152146 2792.9203420762 L 407.20794152146 2792.9203420762 C 409.60794152146 2794.9203420762 411.00794152146 2797.9203420762 411.90794152146 2800.8203420762 C 412.40794152146 2802.3203420762 412.70794152146 2803.8203420762 412.80794152146 2805.4203420762 C 412.90794152146 2807.1203420762 412.80794152146 2808.6203420762 412.70794152146 2810.2203420762 C 411.90794152146 2816.1203420762 411.90794152146 2821.9203420762 414.80794152146 2826.3203420762 C 416.20794152146 2828.5203420762 418.10794152146 2830.4203420762 420.30794152146 2832.2203420762 C 422.50794152146 2834.0203420762 424.90794152146 2835.6203420762 427.40794152146 2837.4203420762 C 432.40794152146 2841.1203420762 436.90794152146 2845.2203420762 441.10794152146 2849.8203420762 C 445.20794152146 2854.4203420762 448.90794152146 2859.5203420762 451.70794152146 2865.1203420762 C 454.40794152146 2870.6203420762 456.80794152146 2876.3203420762 458.40794152146 2882.2203420762 C 460.10794152146 2888.2203420762 461.30794152146 2894.2203420762 461.60794152146 2900.4203420762 Z"/><path id="text" fill="#ffffff" transform="matrix(0.5938039641497551 0 0 0.5938039641497551 421.4521218946771 -1882.5464295525514)" d="M 204.19205426305 3956.59630612274 L 182.78405426305 3956.59630612274 L 182.78405426305 3980.98030612274 L 167.90405426305 3980.98030612274 L 167.90405426305 3916.27630612274 L 207.36005426305 3916.27630612274 L 207.36005426305 3928.08430612274 L 182.78405426305 3928.08430612274 L 182.78405426305 3944.78830612274 L 204.19205426305 3944.78830612274 L 204.19205426305 3956.59630612274 Z M 270.33605426305 3956.40430612274 C 270.33605426305 3963.76430612274 268.24005426305 3969.82830612274 264.04805426305 3974.59630612274 C 259.85605426305 3979.36430612274 254.01605426305 3981.74830612274 246.52805426305 3981.74830612274 C 238.91205426305 3981.74830612274 233.02405426305 3979.46030612274 228.86405426305 3974.88430612274 C 224.70405426305 3970.30830612274 222.62405426305 3964.43630612274 222.62405426305 3957.26830612274 C 222.62405426305 3949.78030612274 224.80005426305 3943.62030612274 229.15205426305 3938.78830612274 C 233.50405426305 3933.95630612274 239.29605426305 3931.54030612274 246.52805426305 3931.54030612274 C 254.08005426305 3931.54030612274 259.93605426305 3933.87630612274 264.09605426305 3938.54830612274 C 268.25605426305 3943.22030612274 270.33605426305 3949.17230612274 270.33605426305 3956.40430612274 Z M 237.21605426305 3956.69230612274 C 237.21605426305 3960.85230612274 238.00005426305 3964.26030612274 239.56805426305 3966.91630612274 C 241.13605426305 3969.57230612274 243.48805426305 3970.90030612274 246.62405426305 3970.90030612274 C 249.69605426305 3970.90030612274 251.98405426305 3969.60430612274 253.48805426305 3967.01230612274 C 254.99205426305 3964.42030612274 255.74405426305 3961.04430612274 255.74405426305 3956.88430612274 C 255.74405426305 3947.34830612274 252.64005426305 3942.58030612274 246.43205426305 3942.58030612274 C 243.36005426305 3942.58030612274 241.05605426305 3943.89230612274 239.52005426305 3946.51630612274 C 237.98405426305 3949.14030612274 237.21605426305 3952.53230612274 237.21605426305 3956.69230612274 Z M 333.79205426305 3956.40430612274 C 333.79205426305 3963.76430612274 331.69605426305 3969.82830612274 327.50405426305 3974.59630612274 C 323.31205426305 3979.36430612274 317.47205426305 3981.74830612274 309.98405426305 3981.74830612274 C 302.36805426305 3981.74830612274 296.48005426305 3979.46030612274 292.32005426305 3974.88430612274 C 288.16005426305 3970.30830612274 286.08005426305 3964.43630612274 286.08005426305 3957.26830612274 C 286.08005426305 3949.78030612274 288.25605426305 3943.62030612274 292.60805426305 3938.78830612274 C 296.96005426305 3933.95630612274 302.75205426305 3931.54030612274 309.98405426305 3931.54030612274 C 317.53605426305 3931.54030612274 323.39205426305 3933.87630612274 327.55205426305 3938.54830612274 C 331.71205426305 3943.22030612274 333.79205426305 3949.17230612274 333.79205426305 3956.40430612274 Z M 300.67205426305 3956.69230612274 C 300.67205426305 3960.85230612274 301.45605426305 3964.26030612274 303.02405426305 3966.91630612274 C 304.59205426305 3969.57230612274 306.94405426305 3970.90030612274 310.08005426305 3970.90030612274 C 313.15205426305 3970.90030612274 315.44005426305 3969.60430612274 316.94405426305 3967.01230612274 C 318.44805426305 3964.42030612274 319.20005426305 3961.04430612274 319.20005426305 3956.88430612274 C 319.20005426305 3947.34830612274 316.09605426305 3942.58030612274 309.88805426305 3942.58030612274 C 306.81605426305 3942.58030612274 304.51205426305 3943.89230612274 302.97605426305 3946.51630612274 C 301.44005426305 3949.14030612274 300.67205426305 3952.53230612274 300.67205426305 3956.69230612274 Z M 363.74405426305 3956.78830612274 C 363.74405426305 3960.69230612274 364.76805426305 3963.84430612274 366.81605426305 3966.24430612274 C 368.86405426305 3968.64430612274 371.36005426305 3969.84430612274 374.30405426305 3969.84430612274 C 377.50405426305 3969.84430612274 380.09605426305 3968.59630612274 382.08005426305 3966.10030612274 C 384.06405426305 3963.60430612274 385.05605426305 3960.27630612274 385.05605426305 3956.11630612274 C 385.05605426305 3952.08430612274 383.98405426305 3948.94830612274 381.84005426305 3946.70830612274 C 379.69605426305 3944.46830612274 377.15205426305 3943.34830612274 374.20805426305 3943.34830612274 C 371.26405426305 3943.34830612274 368.78405426305 3944.53230612274 366.76805426305 3946.90030612274 C 364.75205426305 3949.26830612274 363.74405426305 3952.56430612274 363.74405426305 3956.78830612274 Z M 399.07205426305 3980.98030612274 L 385.05605426305 3980.98030612274 L 385.05605426305 3973.39630612274 C 381.79205426305 3978.83630612274 376.92805426305 3981.55630612274 370.46405426305 3981.55630612274 C 364.12805426305 3981.55630612274 359.05605426305 3979.09230612274 355.24805426305 3974.16430612274 C 351.44005426305 3969.23630612274 349.53605426305 3963.34830612274 349.53605426305 3956.50030612274 C 349.53605426305 3948.82030612274 351.52005426305 3942.77230612274 355.48805426305 3938.35630612274 C 359.45605426305 3933.94030612274 364.48005426305 3931.73230612274 370.56005426305 3931.73230612274 C 376.89605426305 3931.73230612274 381.72805426305 3934.42030612274 385.05605426305 3939.79630612274 L 385.05605426305 3913.10830612274 L 399.07205426305 3913.10830612274 L 399.07205426305 3980.98030612274 Z M 434.11205426305 3980.98030612274 L 420.09605426305 3980.98030612274 L 420.09605426305 3932.30830612274 L 434.11205426305 3932.30830612274 L 434.11205426305 3980.98030612274 Z M 435.26405426305 3918.19630612274 C 435.26405426305 3920.43630612274 434.46405426305 3922.35630612274 432.86405426305 3923.95630612274 C 431.26405426305 3925.55630612274 429.34405426305 3926.35630612274 427.10405426305 3926.35630612274 C 424.86405426305 3926.35630612274 422.94405426305 3925.55630612274 421.34405426305 3923.95630612274 C 419.74405426305 3922.35630612274 418.94405426305 3920.43630612274 418.94405426305 3918.19630612274 C 418.94405426305 3915.95630612274 419.74405426305 3914.03630612274 421.34405426305 3912.43630612274 C 422.94405426305 3910.83630612274 424.86405426305 3910.03630612274 427.10405426305 3910.03630612274 C 429.34405426305 3910.03630612274 431.26405426305 3910.83630612274 432.86405426305 3912.43630612274 C 434.46405426305 3914.03630612274 435.26405426305 3915.95630612274 435.26405426305 3918.19630612274 Z M 493.34405426305 3978.19630612274 C 490.01605426305 3980.37230612274 484.92805426305 3981.46030612274 478.08005426305 3981.46030612274 C 470.08005426305 3981.46030612274 463.85605426305 3979.14030612274 459.40805426305 3974.50030612274 C 454.96005426305 3969.86030612274 452.73605426305 3963.89230612274 452.73605426305 3956.59630612274 C 452.73605426305 3948.85230612274 454.89605426305 3942.78830612274 459.21605426305 3938.40430612274 C 463.53605426305 3934.02030612274 468.86405426305 3931.82830612274 475.20005426305 3931.82830612274 C 481.72805426305 3931.82830612274 486.88005426305 3933.73230612274 490.65605426305 3937.54030612274 C 494.43205426305 3941.34830612274 496.32005426305 3947.02830612274 496.32005426305 3954.58030612274 C 496.32005426305 3956.05230612274 496.06405426305 3958.58030612274 495.55205426305 3962.16430612274 L 466.94405426305 3962.16430612274 C 467.90405426305 3964.85230612274 469.56805426305 3966.93230612274 471.93605426305 3968.40430612274 C 474.30405426305 3969.87630612274 477.15205426305 3970.61230612274 480.48005426305 3970.61230612274 C 485.40805426305 3970.61230612274 489.69605426305 3969.23630612274 493.34405426305 3966.48430612274 L 493.34405426305 3978.19630612274 Z M 475.77605426305 3942.48430612274 C 473.53605426305 3942.48430612274 471.55205426305 3943.30030612274 469.82405426305 3944.93230612274 C 468.09605426305 3946.56430612274 466.94405426305 3948.98030612274 466.36805426305 3952.18030612274 L 483.26405426305 3952.18030612274 L 483.26405426305 3951.02830612274 C 482.81605426305 3945.33230612274 480.32005426305 3942.48430612274 475.77605426305 3942.48430612274 Z M 560.64005426305 3956.40430612274 C 560.64005426305 3963.76430612274 558.54405426305 3969.82830612274 554.35205426305 3974.59630612274 C 550.16005426305 3979.36430612274 544.32005426305 3981.74830612274 536.83205426305 3981.74830612274 C 529.21605426305 3981.74830612274 523.32805426305 3979.46030612274 519.16805426305 3974.88430612274 C 515.00805426305 3970.30830612274 512.92805426305 3964.43630612274 512.92805426305 3957.26830612274 C 512.92805426305 3949.78030612274 515.10405426305 3943.62030612274 519.45605426305 3938.78830612274 C 523.80805426305 3933.95630612274 529.60005426305 3931.54030612274 536.83205426305 3931.54030612274 C 544.38405426305 3931.54030612274 550.24005426305 3933.87630612274 554.40005426305 3938.54830612274 C 558.56005426305 3943.22030612274 560.64005426305 3949.17230612274 560.64005426305 3956.40430612274 Z M 527.52005426305 3956.69230612274 C 527.52005426305 3960.85230612274 528.30405426305 3964.26030612274 529.87205426305 3966.91630612274 C 531.44005426305 3969.57230612274 533.79205426305 3970.90030612274 536.92805426305 3970.90030612274 C 540.00005426305 3970.90030612274 542.28805426305 3969.60430612274 543.79205426305 3967.01230612274 C 545.29605426305 3964.42030612274 546.04805426305 3961.04430612274 546.04805426305 3956.88430612274 C 546.04805426305 3947.34830612274 542.94405426305 3942.58030612274 536.73605426305 3942.58030612274 C 533.66405426305 3942.58030612274 531.36005426305 3943.89230612274 529.82405426305 3946.51630612274 C 528.28805426305 3949.14030612274 527.52005426305 3952.53230612274 527.52005426305 3956.69230612274 Z M 592.80005426305 3998.93230612274 L 578.78405426305 3998.93230612274 L 578.78405426305 3932.30830612274 L 592.80005426305 3932.30830612274 L 592.80005426305 3939.79630612274 C 596.19205426305 3934.42030612274 601.08805426305 3931.73230612274 607.48805426305 3931.73230612274 C 613.76005426305 3931.73230612274 618.80005426305 3933.95630612274 622.60805426305 3938.40430612274 C 626.41605426305 3942.85230612274 628.32005426305 3948.88430612274 628.32005426305 3956.50030612274 C 628.32005426305 3963.73230612274 626.48005426305 3969.71630612274 622.80005426305 3974.45230612274 C 619.12005426305 3979.18830612274 614.01605426305 3981.55630612274 607.48805426305 3981.55630612274 C 600.89605426305 3981.55630612274 596.00005426305 3978.96430612274 592.80005426305 3973.78030612274 L 592.80005426305 3998.93230612274 Z M 592.80005426305 3956.11630612274 C 592.80005426305 3960.27630612274 593.82405426305 3963.60430612274 595.87205426305 3966.10030612274 C 597.92005426305 3968.59630612274 600.54405426305 3969.84430612274 603.74405426305 3969.84430612274 C 606.81605426305 3969.84430612274 609.31205426305 3968.67630612274 611.23205426305 3966.34030612274 C 613.15205426305 3964.00430612274 614.11205426305 3960.82030612274 614.11205426305 3956.78830612274 C 614.11205426305 3952.37230612274 613.13605426305 3949.02830612274 611.18405426305 3946.75630612274 C 609.23205426305 3944.48430612274 606.75205426305 3943.34830612274 603.74405426305 3943.34830612274 C 600.80005426305 3943.34830612274 598.24005426305 3944.46830612274 596.06405426305 3946.70830612274 C 593.88805426305 3948.94830612274 592.80005426305 3952.08430612274 592.80005426305 3956.11630612274 Z M 660.96005426305 3980.98030612274 L 646.94405426305 3980.98030612274 L 646.94405426305 3932.30830612274 L 660.96005426305 3932.30830612274 L 660.96005426305 3980.98030612274 Z M 662.11205426305 3918.19630612274 C 662.11205426305 3920.43630612274 661.31205426305 3922.35630612274 659.71205426305 3923.95630612274 C 658.11205426305 3925.55630612274 656.19205426305 3926.35630612274 653.95205426305 3926.35630612274 C 651.71205426305 3926.35630612274 649.79205426305 3925.55630612274 648.19205426305 3923.95630612274 C 646.59205426305 3922.35630612274 645.79205426305 3920.43630612274 645.79205426305 3918.19630612274 C 645.79205426305 3915.95630612274 646.59205426305 3914.03630612274 648.19205426305 3912.43630612274 C 649.79205426305 3910.83630612274 651.71205426305 3910.03630612274 653.95205426305 3910.03630612274 C 656.19205426305 3910.03630612274 658.11205426305 3910.83630612274 659.71205426305 3912.43630612274 C 661.31205426305 3914.03630612274 662.11205426305 3915.95630612274 662.11205426305 3918.19630612274 Z M 699.84005426305 3971.38030612274 C 701.82405426305 3971.38030612274 703.36005426305 3970.77230612274 704.44805426305 3969.55630612274 C 705.53605426305 3968.34030612274 706.08005426305 3966.67630612274 706.08005426305 3964.56430612274 L 706.08005426305 3961.01230612274 L 701.56805426305 3961.01230612274 C 699.20005426305 3961.01230612274 697.37605426305 3961.52430612274 696.09605426305 3962.54830612274 C 694.81605426305 3963.57230612274 694.17605426305 3964.88430612274 694.17605426305 3966.48430612274 C 694.17605426305 3969.74830612274 696.06405426305 3971.38030612274 699.84005426305 3971.38030612274 Z M 706.75205426305 3975.02830612274 C 704.70405426305 3979.18830612274 700.67205426305 3981.26830612274 694.65605426305 3981.26830612274 C 689.92005426305 3981.26830612274 686.22405426305 3979.92430612274 683.56805426305 3977.23630612274 C 680.91205426305 3974.54830612274 679.58405426305 3971.18830612274 679.58405426305 3967.15630612274 C 679.58405426305 3962.48430612274 681.29605426305 3958.85230612274 684.72005426305 3956.26030612274 C 688.14405426305 3953.66830612274 693.21605426305 3952.37230612274 699.93605426305 3952.37230612274 L 706.08005426305 3952.37230612274 L 706.08005426305 3949.01230612274 C 706.08005426305 3944.91630612274 703.36005426305 3942.86830612274 697.92005426305 3942.86830612274 C 692.67205426305 3942.86830612274 687.80805426305 3944.34030612274 683.32805426305 3947.28430612274 L 683.32805426305 3934.70830612274 C 687.16805426305 3932.53230612274 692.70405426305 3931.44430612274 699.93605426305 3931.44430612274 C 706.84805426305 3931.44430612274 712.00005426305 3932.93230612274 715.39205426305 3935.90830612274 C 718.78405426305 3938.88430612274 720.48005426305 3943.50830612274 720.48005426305 3949.78030612274 L 720.48005426305 3980.98030612274 L 706.75205426305 3980.98030612274 L 706.75205426305 3975.02830612274 Z"/><path id="text" transform="matrix(0.4156627749048286 0 0 0.41566277490482856 423.9204462128548 -1810.951723116601)" d="M 240.64464894722 5646.98672303248 C 239.74864894722 5647.37072303248 238.75664894722 5647.56272303248 237.66864894722 5647.56272303248 C 235.62064894722 5647.56272303248 234.56464894722 5646.63472303248 234.50064894722 5644.77872303248 L 233.92464894722 5628.07472303248 C 235.07664894722 5627.43472303248 236.32464894722 5627.11472303248 237.66864894722 5627.11472303248 C 240.03664894722 5627.11472303248 241.22064894722 5628.36272303248 241.22064894722 5630.85872303248 C 241.22064894722 5631.69072303248 241.20464894722 5632.77872303248 241.17264894722 5634.12272303248 C 241.14064894722 5635.46672303248 241.09264894722 5636.90672303248 241.02864894722 5638.44272303248 C 240.96464894722 5639.97872303248 240.90064894722 5641.49872303248 240.83664894722 5643.00272303248 C 240.77264894722 5644.50672303248 240.70864894722 5645.83472303248 240.64464894722 5646.98672303248 Z M 253.41264894722 5646.98672303248 C 252.45264894722 5647.37072303248 251.42864894722 5647.56272303248 250.34064894722 5647.56272303248 C 248.35664894722 5647.56272303248 247.33264894722 5646.63472303248 247.26864894722 5644.77872303248 L 246.59664894722 5628.07472303248 C 247.17264894722 5627.75472303248 247.76464894722 5627.51472303248 248.37264894722 5627.35472303248 C 248.98064894722 5627.19472303248 249.66864894722 5627.11472303248 250.43664894722 5627.11472303248 C 252.74064894722 5627.11472303248 253.89264894722 5628.39472303248 253.89264894722 5630.95472303248 C 253.89264894722 5631.72272303248 253.87664894722 5632.77872303248 253.84464894722 5634.12272303248 C 253.81264894722 5635.46672303248 253.76464894722 5636.90672303248 253.70064894722 5638.44272303248 C 253.63664894722 5639.97872303248 253.58864894722 5641.49872303248 253.55664894722 5643.00272303248 C 253.52464894722 5644.50672303248 253.47664894722 5645.83472303248 253.41264894722 5646.98672303248 Z M 323.78064894722 5657.93072303248 C 323.78064894722 5662.92272303248 323.07664894722 5667.32272303248 321.66864894722 5671.13072303248 C 320.26064894722 5674.93872303248 318.30864894722 5678.10672303248 315.81264894722 5680.63472303248 C 313.31664894722 5683.16272303248 310.37264894722 5685.08272303248 306.98064894722 5686.39472303248 C 303.58864894722 5687.70672303248 299.90864894722 5688.36272303248 295.94064894722 5688.36272303248 C 291.97264894722 5688.36272303248 288.29264894722 5687.70672303248 284.90064894722 5686.39472303248 C 281.50864894722 5685.08272303248 278.56464894722 5683.16272303248 276.06864894722 5680.63472303248 C 273.57264894722 5678.10672303248 271.62064894722 5674.93872303248 270.21264894722 5671.13072303248 C 268.80464894722 5667.32272303248 268.10064894722 5662.92272303248 268.10064894722 5657.93072303248 C 268.10064894722 5652.93872303248 268.82064894722 5648.55472303248 270.26064894722 5644.77872303248 C 271.70064894722 5641.00272303248 273.66864894722 5637.83472303248 276.16464894722 5635.27472303248 C 278.66064894722 5632.71472303248 281.60464894722 5630.77872303248 284.99664894722 5629.46672303248 C 288.38864894722 5628.15472303248 292.03664894722 5627.49872303248 295.94064894722 5627.49872303248 C 299.84464894722 5627.49872303248 303.49264894722 5628.15472303248 306.88464894722 5629.46672303248 C 310.27664894722 5630.77872303248 313.22064894722 5632.71472303248 315.71664894722 5635.27472303248 C 318.21264894722 5637.83472303248 320.18064894722 5641.00272303248 321.62064894722 5644.77872303248 C 323.06064894722 5648.55472303248 323.78064894722 5652.93872303248 323.78064894722 5657.93072303248 Z M 315.81264894722 5657.93072303248 C 315.81264894722 5650.25072303248 314.00464894722 5644.36272303248 310.38864894722 5640.26672303248 C 306.77264894722 5636.17072303248 301.95664894722 5634.12272303248 295.94064894722 5634.12272303248 C 292.93264894722 5634.12272303248 290.21264894722 5634.65072303248 287.78064894722 5635.70672303248 C 285.34864894722 5636.76272303248 283.26864894722 5638.29872303248 281.54064894722 5640.31472303248 C 279.81264894722 5642.33072303248 278.48464894722 5644.81072303248 277.55664894722 5647.75472303248 C 276.62864894722 5650.69872303248 276.16464894722 5654.09072303248 276.16464894722 5657.93072303248 C 276.16464894722 5665.61072303248 277.95664894722 5671.49872303248 281.54064894722 5675.59472303248 C 285.12464894722 5679.69072303248 289.92464894722 5681.73872303248 295.94064894722 5681.73872303248 C 302.02064894722 5681.73872303248 306.85264894722 5679.69072303248 310.43664894722 5675.59472303248 C 314.02064894722 5671.49872303248 315.81264894722 5665.61072303248 315.81264894722 5657.93072303248 Z M 350.46864894722 5686.92272303248 C 350.14864894722 5687.05072303248 349.66864894722 5687.19472303248 349.02864894722 5687.35472303248 C 348.38864894722 5687.51472303248 347.68464894722 5687.59472303248 346.91664894722 5687.59472303248 C 344.16464894722 5687.59472303248 342.78864894722 5686.44272303248 342.78864894722 5684.13872303248 L 342.78864894722 5651.59472303248 C 342.78864894722 5650.12272303248 343.06064894722 5648.95472303248 343.60464894722 5648.09072303248 C 344.14864894722 5647.22672303248 345.06064894722 5646.37872303248 346.34064894722 5645.54672303248 C 348.00464894722 5644.45872303248 350.26064894722 5643.51472303248 353.10864894722 5642.71472303248 C 355.95664894722 5641.91472303248 359.17264894722 5641.51472303248 362.75664894722 5641.51472303248 C 367.87664894722 5641.51472303248 370.43664894722 5642.79472303248 370.43664894722 5645.35472303248 C 370.43664894722 5645.99472303248 370.34064894722 5646.58672303248 370.14864894722 5647.13072303248 C 369.95664894722 5647.67472303248 369.70064894722 5648.13872303248 369.38064894722 5648.52272303248 C 368.74064894722 5648.39472303248 367.90864894722 5648.26672303248 366.88464894722 5648.13872303248 C 365.86064894722 5648.01072303248 364.83664894722 5647.94672303248 363.81264894722 5647.94672303248 C 360.86864894722 5647.94672303248 358.27664894722 5648.25072303248 356.03664894722 5648.85872303248 C 353.79664894722 5649.46672303248 351.94064894722 5650.18672303248 350.46864894722 5651.01872303248 L 350.46864894722 5686.92272303248 Z M 422.94864894722 5679.81872303248 C 422.94864894722 5681.09872303248 422.67664894722 5682.09072303248 422.13264894722 5682.79472303248 C 421.58864894722 5683.49872303248 420.74064894722 5684.20272303248 419.58864894722 5684.90672303248 C 418.30864894722 5685.73872303248 416.48464894722 5686.52272303248 414.11664894722 5687.25872303248 C 411.74864894722 5687.99472303248 409.02864894722 5688.36272303248 405.95664894722 5688.36272303248 C 402.50064894722 5688.36272303248 399.33264894722 5687.91472303248 396.45264894722 5687.01872303248 C 393.57264894722 5686.12272303248 391.09264894722 5684.73072303248 389.01264894722 5682.84272303248 C 386.93264894722 5680.95472303248 385.33264894722 5678.55472303248 384.21264894722 5675.64272303248 C 383.09264894722 5672.73072303248 382.53264894722 5669.22672303248 382.53264894722 5665.13072303248 C 382.53264894722 5660.97072303248 383.10864894722 5657.40272303248 384.26064894722 5654.42672303248 C 385.41264894722 5651.45072303248 386.96464894722 5649.00272303248 388.91664894722 5647.08272303248 C 390.86864894722 5645.16272303248 393.17264894722 5643.75472303248 395.82864894722 5642.85872303248 C 398.48464894722 5641.96272303248 401.31664894722 5641.51472303248 404.32464894722 5641.51472303248 C 406.37264894722 5641.51472303248 408.35664894722 5641.77072303248 410.27664894722 5642.28272303248 C 412.19664894722 5642.79472303248 413.86064894722 5643.43472303248 415.26864894722 5644.20272303248 L 415.26864894722 5624.90672303248 C 415.58864894722 5624.77872303248 416.08464894722 5624.63472303248 416.75664894722 5624.47472303248 C 417.42864894722 5624.31472303248 418.11664894722 5624.23472303248 418.82064894722 5624.23472303248 C 421.57264894722 5624.23472303248 422.94864894722 5625.38672303248 422.94864894722 5627.69072303248 L 422.94864894722 5679.81872303248 Z M 415.26864894722 5651.11472303248 C 413.98864894722 5650.21872303248 412.51664894722 5649.45072303248 410.85264894722 5648.81072303248 C 409.18864894722 5648.17072303248 407.26864894722 5647.85072303248 405.09264894722 5647.85072303248 C 403.10864894722 5647.85072303248 401.23664894722 5648.15472303248 399.47664894722 5648.76272303248 C 397.71664894722 5649.37072303248 396.16464894722 5650.36272303248 394.82064894722 5651.73872303248 C 393.47664894722 5653.11472303248 392.40464894722 5654.92272303248 391.60464894722 5657.16272303248 C 390.80464894722 5659.40272303248 390.40464894722 5662.12272303248 390.40464894722 5665.32272303248 C 390.40464894722 5671.21072303248 391.81264894722 5675.46672303248 394.62864894722 5678.09072303248 C 397.44464894722 5680.71472303248 401.18864894722 5682.02672303248 405.86064894722 5682.02672303248 C 408.10064894722 5682.02672303248 409.94064894722 5681.78672303248 411.38064894722 5681.30672303248 C 412.82064894722 5680.82672303248 414.11664894722 5680.23472303248 415.26864894722 5679.53072303248 L 415.26864894722 5651.11472303248 Z M 449.54064894722 5669.45072303248 C 451.26864894722 5677.83472303248 456.77264894722 5682.02672303248 466.05264894722 5682.02672303248 C 468.74064894722 5682.02672303248 471.17264894722 5681.57872303248 473.34864894722 5680.68272303248 C 475.52464894722 5679.78672303248 477.25264894722 5678.82672303248 478.53264894722 5677.80272303248 C 480.06864894722 5678.69872303248 480.83664894722 5679.91472303248 480.83664894722 5681.45072303248 C 480.83664894722 5682.34672303248 480.43664894722 5683.21072303248 479.63664894722 5684.04272303248 C 478.83664894722 5684.87472303248 477.74864894722 5685.61072303248 476.37264894722 5686.25072303248 C 474.99664894722 5686.89072303248 473.39664894722 5687.40272303248 471.57264894722 5687.78672303248 C 469.74864894722 5688.17072303248 467.78064894722 5688.36272303248 465.66864894722 5688.36272303248 C 458.24464894722 5688.36272303248 452.37264894722 5686.34672303248 448.05264894722 5682.31472303248 C 443.73264894722 5678.28272303248 441.57264894722 5672.39472303248 441.57264894722 5664.65072303248 C 441.57264894722 5661.00272303248 442.10064894722 5657.75472303248 443.15664894722 5654.90672303248 C 444.21264894722 5652.05872303248 445.68464894722 5649.64272303248 447.57264894722 5647.65872303248 C 449.46064894722 5645.67472303248 451.71664894722 5644.15472303248 454.34064894722 5643.09872303248 C 456.96464894722 5642.04272303248 459.81264894722 5641.51472303248 462.88464894722 5641.51472303248 C 465.76464894722 5641.51472303248 468.42064894722 5641.99472303248 470.85264894722 5642.95472303248 C 473.28464894722 5643.91472303248 475.38064894722 5645.27472303248 477.14064894722 5647.03472303248 C 478.90064894722 5648.79472303248 480.27664894722 5650.87472303248 481.26864894722 5653.27472303248 C 482.26064894722 5655.67472303248 482.75664894722 5658.31472303248 482.75664894722 5661.19472303248 C 482.75664894722 5662.60272303248 482.43664894722 5663.61072303248 481.79664894722 5664.21872303248 C 481.15664894722 5664.82672303248 480.26064894722 5665.19472303248 479.10864894722 5665.32272303248 L 449.54064894722 5669.45072303248 Z M 462.78864894722 5647.75472303248 C 458.88464894722 5647.75472303248 455.65264894722 5649.11472303248 453.09264894722 5651.83472303248 C 450.53264894722 5654.55472303248 449.18864894722 5658.44272303248 449.06064894722 5663.49872303248 L 475.46064894722 5659.85072303248 C 475.14064894722 5656.33072303248 473.90864894722 5653.43472303248 471.76464894722 5651.16272303248 C 469.62064894722 5648.89072303248 466.62864894722 5647.75472303248 462.78864894722 5647.75472303248 Z M 508.10064894722 5686.92272303248 C 507.78064894722 5687.05072303248 507.30064894722 5687.19472303248 506.66064894722 5687.35472303248 C 506.02064894722 5687.51472303248 505.31664894722 5687.59472303248 504.54864894722 5687.59472303248 C 501.79664894722 5687.59472303248 500.42064894722 5686.44272303248 500.42064894722 5684.13872303248 L 500.42064894722 5651.59472303248 C 500.42064894722 5650.12272303248 500.69264894722 5648.95472303248 501.23664894722 5648.09072303248 C 501.78064894722 5647.22672303248 502.69264894722 5646.37872303248 503.97264894722 5645.54672303248 C 505.63664894722 5644.45872303248 507.89264894722 5643.51472303248 510.74064894722 5642.71472303248 C 513.58864894722 5641.91472303248 516.80464894722 5641.51472303248 520.38864894722 5641.51472303248 C 525.50864894722 5641.51472303248 528.06864894722 5642.79472303248 528.06864894722 5645.35472303248 C 528.06864894722 5645.99472303248 527.97264894722 5646.58672303248 527.78064894722 5647.13072303248 C 527.58864894722 5647.67472303248 527.33264894722 5648.13872303248 527.01264894722 5648.52272303248 C 526.37264894722 5648.39472303248 525.54064894722 5648.26672303248 524.51664894722 5648.13872303248 C 523.49264894722 5648.01072303248 522.46864894722 5647.94672303248 521.44464894722 5647.94672303248 C 518.50064894722 5647.94672303248 515.90864894722 5648.25072303248 513.66864894722 5648.85872303248 C 511.42864894722 5649.46672303248 509.57264894722 5650.18672303248 508.10064894722 5651.01872303248 L 508.10064894722 5686.92272303248 Z M 574.91664894722 5687.11472303248 C 573.63664894722 5687.11472303248 572.61264894722 5686.73072303248 571.84464894722 5685.96272303248 C 571.07664894722 5685.19472303248 570.69264894722 5684.17072303248 570.69264894722 5682.89072303248 L 570.69264894722 5632.97072303248 C 570.69264894722 5631.69072303248 571.07664894722 5630.66672303248 571.84464894722 5629.89872303248 C 572.61264894722 5629.13072303248 573.63664894722 5628.74672303248 574.91664894722 5628.74672303248 L 606.78864894722 5628.74672303248 C 606.98064894722 5629.06672303248 607.17264894722 5629.49872303248 607.36464894722 5630.04272303248 C 607.55664894722 5630.58672303248 607.65264894722 5631.17872303248 607.65264894722 5631.81872303248 C 607.65264894722 5632.90672303248 607.39664894722 5633.77072303248 606.88464894722 5634.41072303248 C 606.37264894722 5635.05072303248 605.63664894722 5635.37072303248 604.67664894722 5635.37072303248 L 578.46864894722 5635.37072303248 L 578.46864894722 5653.89872303248 L 603.81264894722 5653.89872303248 C 604.00464894722 5654.21872303248 604.19664894722 5654.65072303248 604.38864894722 5655.19472303248 C 604.58064894722 5655.73872303248 604.67664894722 5656.33072303248 604.67664894722 5656.97072303248 C 604.67664894722 5658.05872303248 604.42064894722 5658.90672303248 603.90864894722 5659.51472303248 C 603.39664894722 5660.12272303248 602.66064894722 5660.42672303248 601.70064894722 5660.42672303248 L 578.46864894722 5660.42672303248 L 578.46864894722 5680.58672303248 L 607.26864894722 5680.58672303248 C 607.46064894722 5680.90672303248 607.65264894722 5681.32272303248 607.84464894722 5681.83472303248 C 608.03664894722 5682.34672303248 608.13264894722 5682.95472303248 608.13264894722 5683.65872303248 C 608.13264894722 5684.74672303248 607.87664894722 5685.59472303248 607.36464894722 5686.20272303248 C 606.85264894722 5686.81072303248 606.11664894722 5687.11472303248 605.15664894722 5687.11472303248 L 574.91664894722 5687.11472303248 L 574.91664894722 5687.11472303248 Z M 642.69264894722 5682.12272303248 C 645.38064894722 5682.12272303248 647.60464894722 5681.85072303248 649.36464894722 5681.30672303248 C 651.12464894722 5680.76272303248 652.38864894722 5680.23472303248 653.15664894722 5679.72272303248 L 653.15664894722 5665.80272303248 L 641.25264894722 5667.05072303248 C 637.92464894722 5667.37072303248 635.46064894722 5668.12272303248 633.86064894722 5669.30672303248 C 632.26064894722 5670.49072303248 631.46064894722 5672.23472303248 631.46064894722 5674.53872303248 C 631.46064894722 5676.97072303248 632.38864894722 5678.84272303248 634.24464894722 5680.15472303248 C 636.10064894722 5681.46672303248 638.91664894722 5682.12272303248 642.69264894722 5682.12272303248 Z M 642.59664894722 5641.51472303248 C 648.16464894722 5641.51472303248 652.58064894722 5642.76272303248 655.84464894722 5645.25872303248 C 659.10864894722 5647.75472303248 660.74064894722 5651.69072303248 660.74064894722 5657.06672303248 L 660.74064894722 5679.81872303248 C 660.74064894722 5681.22672303248 660.46864894722 5682.29872303248 659.92464894722 5683.03472303248 C 659.38064894722 5683.77072303248 658.56464894722 5684.45872303248 657.47664894722 5685.09872303248 C 655.94064894722 5685.99472303248 653.90864894722 5686.77872303248 651.38064894722 5687.45072303248 C 648.85264894722 5688.12272303248 645.95664894722 5688.45872303248 642.69264894722 5688.45872303248 C 636.67664894722 5688.45872303248 632.02064894722 5687.27472303248 628.72464894722 5684.90672303248 C 625.42864894722 5682.53872303248 623.78064894722 5679.11472303248 623.78064894722 5674.63472303248 C 623.78064894722 5670.41072303248 625.15664894722 5667.22672303248 627.90864894722 5665.08272303248 C 630.66064894722 5662.93872303248 634.53264894722 5661.61072303248 639.52464894722 5661.09872303248 L 653.15664894722 5659.75472303248 L 653.15664894722 5657.06672303248 C 653.15664894722 5653.86672303248 652.19664894722 5651.53072303248 650.27664894722 5650.05872303248 C 648.35664894722 5648.58672303248 645.76464894722 5647.85072303248 642.50064894722 5647.85072303248 C 639.81264894722 5647.85072303248 637.28464894722 5648.23472303248 634.91664894722 5649.00272303248 C 632.54864894722 5649.77072303248 630.43664894722 5650.63472303248 628.58064894722 5651.59472303248 C 628.06864894722 5651.14672303248 627.60464894722 5650.63472303248 627.18864894722 5650.05872303248 C 626.77264894722 5649.48272303248 626.56464894722 5648.84272303248 626.56464894722 5648.13872303248 C 626.56464894722 5647.24272303248 626.78864894722 5646.50672303248 627.23664894722 5645.93072303248 C 627.68464894722 5645.35472303248 628.38864894722 5644.81072303248 629.34864894722 5644.29872303248 C 631.07664894722 5643.40272303248 633.06064894722 5642.71472303248 635.30064894722 5642.23472303248 C 637.54064894722 5641.75472303248 639.97264894722 5641.51472303248 642.59664894722 5641.51472303248 Z M 696.45264894722 5688.36272303248 C 691.97264894722 5688.36272303248 688.34064894722 5687.37072303248 685.55664894722 5685.38672303248 C 682.77264894722 5683.40272303248 681.38064894722 5680.10672303248 681.38064894722 5675.49872303248 L 681.38064894722 5629.89872303248 C 681.70064894722 5629.77072303248 682.19664894722 5629.62672303248 682.86864894722 5629.46672303248 C 683.54064894722 5629.30672303248 684.26064894722 5629.22672303248 685.02864894722 5629.22672303248 C 687.71664894722 5629.22672303248 689.06064894722 5630.37872303248 689.06064894722 5632.68272303248 L 689.06064894722 5643.72272303248 L 704.80464894722 5643.72272303248 C 704.99664894722 5644.04272303248 705.18864894722 5644.47472303248 705.38064894722 5645.01872303248 C 705.57264894722 5645.56272303248 705.66864894722 5646.15472303248 705.66864894722 5646.79472303248 C 705.66864894722 5648.97072303248 704.70864894722 5650.05872303248 702.78864894722 5650.05872303248 L 689.06064894722 5650.05872303248 L 689.06064894722 5675.01872303248 C 689.06064894722 5677.57872303248 689.78064894722 5679.38672303248 691.22064894722 5680.44272303248 C 692.66064894722 5681.49872303248 694.69264894722 5682.02672303248 697.31664894722 5682.02672303248 C 698.40464894722 5682.02672303248 699.62064894722 5681.83472303248 700.96464894722 5681.45072303248 C 702.30864894722 5681.06672303248 703.42864894722 5680.61872303248 704.32464894722 5680.10672303248 C 704.70864894722 5680.49072303248 705.06064894722 5680.97072303248 705.38064894722 5681.54672303248 C 705.70064894722 5682.12272303248 705.86064894722 5682.79472303248 705.86064894722 5683.56272303248 C 705.86064894722 5684.97072303248 705.02864894722 5686.12272303248 703.36464894722 5687.01872303248 C 701.70064894722 5687.91472303248 699.39664894722 5688.36272303248 696.45264894722 5688.36272303248 Z M 754.82064894722 5687.11472303248 C 753.54064894722 5687.11472303248 752.51664894722 5686.73072303248 751.74864894722 5685.96272303248 C 750.98064894722 5685.19472303248 750.59664894722 5684.17072303248 750.59664894722 5682.89072303248 L 750.59664894722 5632.97072303248 C 750.59664894722 5631.69072303248 750.98064894722 5630.66672303248 751.74864894722 5629.89872303248 C 752.51664894722 5629.13072303248 753.54064894722 5628.74672303248 754.82064894722 5628.74672303248 L 786.69264894722 5628.74672303248 C 786.88464894722 5629.06672303248 787.07664894722 5629.49872303248 787.26864894722 5630.04272303248 C 787.46064894722 5630.58672303248 787.55664894722 5631.17872303248 787.55664894722 5631.81872303248 C 787.55664894722 5632.90672303248 787.30064894722 5633.77072303248 786.78864894722 5634.41072303248 C 786.27664894722 5635.05072303248 785.54064894722 5635.37072303248 784.58064894722 5635.37072303248 L 758.37264894722 5635.37072303248 L 758.37264894722 5653.89872303248 L 783.71664894722 5653.89872303248 C 783.90864894722 5654.21872303248 784.10064894722 5654.65072303248 784.29264894722 5655.19472303248 C 784.48464894722 5655.73872303248 784.58064894722 5656.33072303248 784.58064894722 5656.97072303248 C 784.58064894722 5658.05872303248 784.32464894722 5658.90672303248 783.81264894722 5659.51472303248 C 783.30064894722 5660.12272303248 782.56464894722 5660.42672303248 781.60464894722 5660.42672303248 L 758.37264894722 5660.42672303248 L 758.37264894722 5680.58672303248 L 787.17264894722 5680.58672303248 C 787.36464894722 5680.90672303248 787.55664894722 5681.32272303248 787.74864894722 5681.83472303248 C 787.94064894722 5682.34672303248 788.03664894722 5682.95472303248 788.03664894722 5683.65872303248 C 788.03664894722 5684.74672303248 787.78064894722 5685.59472303248 787.26864894722 5686.20272303248 C 786.75664894722 5686.81072303248 786.02064894722 5687.11472303248 785.06064894722 5687.11472303248 L 754.82064894722 5687.11472303248 L 754.82064894722 5687.11472303248 Z M 837.18864894722 5658.21872303248 C 837.18864894722 5654.63472303248 836.18064894722 5652.01072303248 834.16464894722 5650.34672303248 C 832.14864894722 5648.68272303248 829.44464894722 5647.85072303248 826.05264894722 5647.85072303248 C 823.49264894722 5647.85072303248 821.22064894722 5648.17072303248 819.23664894722 5648.81072303248 C 817.25264894722 5649.45072303248 815.55664894722 5650.18672303248 814.14864894722 5651.01872303248 L 814.14864894722 5686.92272303248 C 813.82864894722 5687.05072303248 813.34864894722 5687.19472303248 812.70864894722 5687.35472303248 C 812.06864894722 5687.51472303248 811.36464894722 5687.59472303248 810.59664894722 5687.59472303248 C 807.84464894722 5687.59472303248 806.46864894722 5686.44272303248 806.46864894722 5684.13872303248 L 806.46864894722 5651.40272303248 C 806.46864894722 5650.05872303248 806.74064894722 5648.95472303248 807.28464894722 5648.09072303248 C 807.82864894722 5647.22672303248 808.77264894722 5646.37872303248 810.11664894722 5645.54672303248 C 811.78064894722 5644.52272303248 813.98864894722 5643.59472303248 816.74064894722 5642.76272303248 C 819.49264894722 5641.93072303248 822.59664894722 5641.51472303248 826.05264894722 5641.51472303248 C 831.87664894722 5641.51472303248 836.46864894722 5642.82672303248 839.82864894722 5645.45072303248 C 843.18864894722 5648.07472303248 844.86864894722 5652.20272303248 844.86864894722 5657.83472303248 L 844.86864894722 5686.92272303248 C 844.54864894722 5687.05072303248 844.05264894722 5687.19472303248 843.38064894722 5687.35472303248 C 842.70864894722 5687.51472303248 842.02064894722 5687.59472303248 841.31664894722 5687.59472303248 C 838.56464894722 5687.59472303248 837.18864894722 5686.44272303248 837.18864894722 5684.13872303248 L 837.18864894722 5658.21872303248 L 837.18864894722 5658.21872303248 Z M 859.17264894722 5701.13072303248 C 860.32464894722 5700.61872303248 861.36464894722 5700.09072303248 862.29264894722 5699.54672303248 C 863.22064894722 5699.00272303248 863.98864894722 5698.33072303248 864.59664894722 5697.53072303248 C 865.20464894722 5696.73072303248 865.68464894722 5695.73872303248 866.03664894722 5694.55472303248 C 866.38864894722 5693.37072303248 866.56464894722 5691.85072303248 866.56464894722 5689.99472303248 L 866.56464894722 5642.95472303248 C 866.88464894722 5642.82672303248 867.38064894722 5642.68272303248 868.05264894722 5642.52272303248 C 868.72464894722 5642.36272303248 869.44464894722 5642.28272303248 870.21264894722 5642.28272303248 C 872.90064894722 5642.28272303248 874.24464894722 5643.46672303248 874.24464894722 5645.83472303248 L 874.24464894722 5691.43472303248 C 874.24464894722 5694.25072303248 873.86064894722 5696.57072303248 873.09264894722 5698.39472303248 C 872.32464894722 5700.21872303248 871.38064894722 5701.69072303248 870.26064894722 5702.81072303248 C 869.14064894722 5703.93072303248 867.97264894722 5704.71472303248 866.75664894722 5705.16272303248 C 865.54064894722 5705.61072303248 864.48464894722 5705.83472303248 863.58864894722 5705.83472303248 C 861.98864894722 5705.83472303248 860.88464894722 5705.37072303248 860.27664894722 5704.44272303248 C 859.66864894722 5703.51472303248 859.30064894722 5702.41072303248 859.17264894722 5701.13072303248 Z M 865.41264894722 5628.74672303248 C 865.41264894722 5627.40272303248 865.87664894722 5626.26672303248 866.80464894722 5625.33872303248 C 867.73264894722 5624.41072303248 868.93264894722 5623.94672303248 870.40464894722 5623.94672303248 C 871.87664894722 5623.94672303248 873.06064894722 5624.41072303248 873.95664894722 5625.33872303248 C 874.85264894722 5626.26672303248 875.30064894722 5627.40272303248 875.30064894722 5628.74672303248 C 875.30064894722 5630.09072303248 874.85264894722 5631.22672303248 873.95664894722 5632.15472303248 C 873.06064894722 5633.08272303248 871.87664894722 5633.54672303248 870.40464894722 5633.54672303248 C 868.93264894722 5633.54672303248 867.73264894722 5633.08272303248 866.80464894722 5632.15472303248 C 865.87664894722 5631.22672303248 865.41264894722 5630.09072303248 865.41264894722 5628.74672303248 Z M 936.83664894722 5664.93872303248 C 936.83664894722 5668.52272303248 936.32464894722 5671.75472303248 935.30064894722 5674.63472303248 C 934.27664894722 5677.51472303248 932.82064894722 5679.97872303248 930.93264894722 5682.02672303248 C 929.04464894722 5684.07472303248 926.75664894722 5685.64272303248 924.06864894722 5686.73072303248 C 921.38064894722 5687.81872303248 918.37264894722 5688.36272303248 915.04464894722 5688.36272303248 C 911.71664894722 5688.36272303248 908.70864894722 5687.81872303248 906.02064894722 5686.73072303248 C 903.33264894722 5685.64272303248 901.02864894722 5684.07472303248 899.10864894722 5682.02672303248 C 897.18864894722 5679.97872303248 895.71664894722 5677.51472303248 894.69264894722 5674.63472303248 C 893.66864894722 5671.75472303248 893.15664894722 5668.52272303248 893.15664894722 5664.93872303248 C 893.15664894722 5661.35472303248 893.68464894722 5658.12272303248 894.74064894722 5655.24272303248 C 895.79664894722 5652.36272303248 897.28464894722 5649.89872303248 899.20464894722 5647.85072303248 C 901.12464894722 5645.80272303248 903.42864894722 5644.23472303248 906.11664894722 5643.14672303248 C 908.80464894722 5642.05872303248 911.78064894722 5641.51472303248 915.04464894722 5641.51472303248 C 918.30864894722 5641.51472303248 921.28464894722 5642.05872303248 923.97264894722 5643.14672303248 C 926.66064894722 5644.23472303248 928.94864894722 5645.80272303248 930.83664894722 5647.85072303248 C 932.72464894722 5649.89872303248 934.19664894722 5652.36272303248 935.25264894722 5655.24272303248 C 936.30864894722 5658.12272303248 936.83664894722 5661.35472303248 936.83664894722 5664.93872303248 Z M 915.04464894722 5647.85072303248 C 910.69264894722 5647.85072303248 907.26864894722 5649.35472303248 904.77264894722 5652.36272303248 C 902.27664894722 5655.37072303248 901.02864894722 5659.56272303248 901.02864894722 5664.93872303248 C 901.02864894722 5670.37872303248 902.26064894722 5674.58672303248 904.72464894722 5677.56272303248 C 907.18864894722 5680.53872303248 910.62864894722 5682.02672303248 915.04464894722 5682.02672303248 C 919.46064894722 5682.02672303248 922.88464894722 5680.52272303248 925.31664894722 5677.51472303248 C 927.74864894722 5674.50672303248 928.96464894722 5670.31472303248 928.96464894722 5664.93872303248 C 928.96464894722 5659.56272303248 927.73264894722 5655.37072303248 925.26864894722 5652.36272303248 C 922.80464894722 5649.35472303248 919.39664894722 5647.85072303248 915.04464894722 5647.85072303248 Z M 963.04464894722 5677.22672303248 C 962.21264894722 5675.69072303248 961.25264894722 5673.73872303248 960.16464894722 5671.37072303248 C 959.07664894722 5669.00272303248 957.94064894722 5666.34672303248 956.75664894722 5663.40272303248 C 955.57264894722 5660.45872303248 954.37264894722 5657.33872303248 953.15664894722 5654.04272303248 C 951.94064894722 5650.74672303248 950.78864894722 5647.40272303248 949.70064894722 5644.01072303248 C 950.14864894722 5643.37072303248 950.74064894722 5642.85872303248 951.47664894722 5642.47472303248 C 952.21264894722 5642.09072303248 952.99664894722 5641.89872303248 953.82864894722 5641.89872303248 C 954.91664894722 5641.89872303248 955.79664894722 5642.18672303248 956.46864894722 5642.76272303248 C 957.14064894722 5643.33872303248 957.73264894722 5644.29872303248 958.24464894722 5645.64272303248 C 960.16464894722 5651.08272303248 962.16464894722 5656.42672303248 964.24464894722 5661.67472303248 C 966.32464894722 5666.92272303248 968.67664894722 5672.42672303248 971.30064894722 5678.18672303248 L 971.68464894722 5678.18672303248 C 972.70864894722 5676.20272303248 973.76464894722 5673.78672303248 974.85264894722 5670.93872303248 C 975.94064894722 5668.09072303248 977.01264894722 5665.06672303248 978.06864894722 5661.86672303248 C 979.12464894722 5658.66672303248 980.11664894722 5655.41872303248 981.04464894722 5652.12272303248 C 981.97264894722 5648.82672303248 982.78864894722 5645.67472303248 983.49264894722 5642.66672303248 C 983.94064894722 5642.47472303248 984.42064894722 5642.29872303248 984.93264894722 5642.13872303248 C 985.44464894722 5641.97872303248 986.05264894722 5641.89872303248 986.75664894722 5641.89872303248 C 987.84464894722 5641.89872303248 988.74064894722 5642.17072303248 989.44464894722 5642.71472303248 C 990.14864894722 5643.25872303248 990.50064894722 5644.07472303248 990.50064894722 5645.16272303248 C 990.50064894722 5646.44272303248 990.05264894722 5648.77872303248 989.15664894722 5652.17072303248 C 988.26064894722 5655.56272303248 987.09264894722 5659.37072303248 985.65264894722 5663.59472303248 C 984.21264894722 5667.81872303248 982.56464894722 5672.15472303248 980.70864894722 5676.60272303248 C 978.85264894722 5681.05072303248 976.96464894722 5685.00272303248 975.04464894722 5688.45872303248 C 972.03664894722 5693.89872303248 969.33264894722 5698.07472303248 966.93264894722 5700.98672303248 C 964.53264894722 5703.89872303248 962.30864894722 5705.35472303248 960.26064894722 5705.35472303248 C 958.78864894722 5705.35472303248 957.65264894722 5704.97072303248 956.85264894722 5704.20272303248 C 956.05264894722 5703.43472303248 955.55664894722 5702.53872303248 955.36464894722 5701.51472303248 C 956.38864894722 5700.61872303248 957.54064894722 5699.46672303248 958.82064894722 5698.05872303248 C 960.10064894722 5696.65072303248 961.38064894722 5695.13072303248 962.66064894722 5693.49872303248 C 963.94064894722 5691.86672303248 965.15664894722 5690.18672303248 966.30864894722 5688.45872303248 C 967.46064894722 5686.73072303248 968.42064894722 5685.06672303248 969.18864894722 5683.46672303248 C 968.10064894722 5683.14672303248 967.09264894722 5682.58672303248 966.16464894722 5681.78672303248 C 965.23664894722 5680.98672303248 964.19664894722 5679.46672303248 963.04464894722 5677.22672303248 Z M 1011.81264894722 5646.98672303248 C 1010.91664894722 5647.37072303248 1009.92464894722 5647.56272303248 1008.83664894722 5647.56272303248 C 1006.78864894722 5647.56272303248 1005.73264894722 5646.63472303248 1005.66864894722 5644.77872303248 L 1005.09264894722 5628.07472303248 C 1006.24464894722 5627.43472303248 1007.49264894722 5627.11472303248 1008.83664894722 5627.11472303248 C 1011.20464894722 5627.11472303248 1012.38864894722 5628.36272303248 1012.38864894722 5630.85872303248 C 1012.38864894722 5631.69072303248 1012.37264894722 5632.77872303248 1012.34064894722 5634.12272303248 C 1012.30864894722 5635.46672303248 1012.26064894722 5636.90672303248 1012.19664894722 5638.44272303248 C 1012.13264894722 5639.97872303248 1012.06864894722 5641.49872303248 1012.00464894722 5643.00272303248 C 1011.94064894722 5644.50672303248 1011.87664894722 5645.83472303248 1011.81264894722 5646.98672303248 Z M 1024.58064894722 5646.98672303248 C 1023.62064894722 5647.37072303248 1022.59664894722 5647.56272303248 1021.50864894722 5647.56272303248 C 1019.52464894722 5647.56272303248 1018.50064894722 5646.63472303248 1018.43664894722 5644.77872303248 L 1017.76464894722 5628.07472303248 C 1018.34064894722 5627.75472303248 1018.93264894722 5627.51472303248 1019.54064894722 5627.35472303248 C 1020.14864894722 5627.19472303248 1020.83664894722 5627.11472303248 1021.60464894722 5627.11472303248 C 1023.90864894722 5627.11472303248 1025.06064894722 5628.39472303248 1025.06064894722 5630.95472303248 C 1025.06064894722 5631.72272303248 1025.04464894722 5632.77872303248 1025.01264894722 5634.12272303248 C 1024.98064894722 5635.46672303248 1024.93264894722 5636.90672303248 1024.86864894722 5638.44272303248 C 1024.80464894722 5639.97872303248 1024.75664894722 5641.49872303248 1024.72464894722 5643.00272303248 C 1024.69264894722 5644.50672303248 1024.64464894722 5645.83472303248 1024.58064894722 5646.98672303248 Z"/></svg>