<svg width="1000" height="1000" viewBox="0 0 1000 1000" xmlns="http://www.w3.org/2000/svg"><defs/><path fill="#f45700" d="M 0 0 L 1000 0 L 1000 1000 L 0 1000 Z"/><path fill="#ffffff" transform="matrix(1.3796686875385644 0 0 1.3796686875385646 -14.308431341537245 -15.016606673351909)" d="M 472.4204103231 296.65409612627 C 467.8204103231 290.65409612627 460.8204103231 286.25409612627 457.7204103231 279.25409612627 C 456.3204103231 276.15409612627 455.0204103231 272.95409612627 453.6204103231 269.85409612627 C 452.4204103231 266.75409612627 450.2204103231 264.25409612627 448.3204103231 261.35409612627 C 446.4204103231 258.45409612627 444.9204103231 256.55409612627 441.5204103231 254.85409612627 C 439.1204103231 253.65409612627 436.4204103231 252.65409612627 433.8204103231 251.45409612627 C 428.2204103231 248.75409612627 423.7204103231 244.25409612627 418.1204103231 241.35409612627 C 412.8204103231 238.65409612627 406.5204103231 237.25409612627 400.7204103231 236.05409612627 C 395.6204103231 234.85409612627 390.3204103231 235.05409612627 385.2204103231 234.35409612627 C 382.5204103231 234.15409612627 379.9204103231 233.65409612627 377.5204103231 232.15409612627 C 374.8204103231 230.75409612627 372.7204103231 228.25409612627 370.0204103231 226.85409612627 C 364.2204103231 224.15409612627 357.9204103231 223.45409612627 352.6204103231 226.65409612627 C 347.3204103231 229.75409612627 342.7204103231 233.85409612627 337.1204103231 236.05409612627 C 331.5204103231 238.45409612627 325.5204103231 239.45409612627 319.9204103231 242.05409612627 C 314.1204103231 244.95409612627 309.5204103231 248.55409612627 304.4204103231 252.65409612627 C 300.9204103231 255.55409612627 297.9204103231 258.65409612627 294.0204103231 261.35409612627 C 290.0204103231 264.05409612627 286.0204103231 266.75409612627 282.7204103231 270.35409612627 C 277.8204103231 275.65409612627 276.3204103231 283.45409612627 274.3204103231 290.15409612627 C 272.1204103231 297.45409612627 271.0204103231 304.45409612627 272.3204103231 312.05409612627 C 273.4204103231 318.15409612627 275.0204103231 324.15409612627 277.1204103231 329.95409612627 C 279.0204103231 335.05409612627 281.2204103231 339.95409612627 283.9204103231 344.65409612627 C 286.2204103231 348.85409612627 289.6204103231 352.35409612627 291.8204103231 356.55409612627 C 297.0204103231 366.35409612627 301.8204103231 375.85409612627 309.0204103231 384.45409612627 C 319.7204103231 397.25409612627 333.3204103231 407.95409612627 348.7204103231 414.45409612627 C 364.1204103231 420.95409612627 380.9204103231 422.35409612627 397.2204103231 418.85409612627 C 413.9204103231 415.35409612627 430.1204103231 407.15409612627 442.0204103231 394.85409612627 C 455.6204103231 380.95409612627 462.3204103231 361.65409612627 465.9204103231 342.95409612627 C 466.9204103231 337.65409612627 469.3204103231 332.55409612627 471.2204103231 327.75409612627 C 475.0204103231 318.95409612627 478.9204103231 305.15409612627 472.4204103231 296.65409612627 Z M 394.2204103231 264.95409612627 C 396.7204103231 263.85409612627 399.1204103231 262.85409612627 401.3204103231 261.45409612627 C 403.5204103231 260.15409612627 405.5204103231 258.65409612627 407.2204103231 256.85409612627 C 408.0204103231 255.95409612627 409.0204103231 254.85409612627 410.0204103231 253.85409612627 C 411.1204103231 252.85409612627 412.2204103231 251.95409612627 413.4204103231 251.25409612627 C 415.8204103231 249.75409612627 418.6204103231 248.65409612627 421.3204103231 248.25409612627 C 421.6204103231 248.25409612627 421.9204103231 248.45409612627 422.0204103231 248.75409612627 C 422.0204103231 248.95409612627 421.9204103231 249.25409612627 421.7204103231 249.35409612627 C 419.4204103231 250.75409612627 417.2204103231 252.25409612627 415.3204103231 253.85409612627 C 414.3204103231 254.65409612627 413.4204103231 255.55409612627 412.6204103231 256.45409612627 C 411.7204103231 257.35409612627 411.0204103231 258.35409612627 409.9204103231 259.45409612627 C 407.9204103231 261.55409612627 405.4204103231 263.25409612627 402.7204103231 264.35409612627 C 400.0204103231 265.45409612627 397.2204103231 265.95409612627 394.4204103231 266.05409612627 L 394.4204103231 266.05409612627 C 394.1204103231 266.05409612627 393.8204103231 265.85409612627 393.8204103231 265.45409612627 C 393.9204103231 265.25409612627 394.0204103231 265.05409612627 394.2204103231 264.95409612627 Z M 378.2204103231 237.75409612627 C 378.3204103231 237.75409612627 378.5204103231 237.75409612627 378.5204103231 237.85409612627 C 379.9204103231 239.15409612627 381.0204103231 240.65409612627 382.1204103231 242.25409612627 C 383.1204103231 243.85409612627 384.1204103231 245.55409612627 384.8204103231 247.35409612627 C 385.5204103231 249.15409612627 386.0204103231 251.15409612627 386.0204103231 253.15409612627 C 386.0204103231 255.15409612627 385.3204103231 257.35409612627 383.9204103231 258.75409612627 C 383.8204103231 258.85409612627 383.5204103231 258.85409612627 383.4204103231 258.75409612627 C 383.3204103231 258.65409612627 383.3204103231 258.55409612627 383.3204103231 258.45409612627 C 383.3204103231 256.55409612627 383.1204103231 254.95409612627 382.8204103231 253.25409612627 C 382.5204103231 251.65409612627 382.1204103231 249.95409612627 381.6204103231 248.35409612627 C 381.1204103231 246.65409612627 380.5204103231 245.05409612627 379.8204103231 243.35409612627 C 379.2204103231 241.65409612627 378.5204103231 239.95409612627 378.0204103231 238.15409612627 C 377.9204103231 237.95409612627 378.1204103231 237.75409612627 378.2204103231 237.75409612627 Z M 332.7204103231 241.85409612627 C 332.8204103231 241.65409612627 333.0204103231 241.45409612627 333.3204103231 241.45409612627 C 334.3204103231 241.45409612627 335.1204103231 241.85409612627 335.8204103231 242.25409612627 C 336.5204103231 242.65409612627 337.2204103231 243.15409612627 337.8204103231 243.55409612627 C 339.1204103231 244.55409612627 340.3204103231 245.45409612627 341.4204103231 246.45409612627 C 343.7204103231 248.45409612627 346.0204103231 250.35409612627 348.3204103231 251.85409612627 C 350.6204103231 253.25409612627 353.5204103231 254.35409612627 356.3204103231 255.75409612627 L 356.8204103231 256.05409612627 L 356.9204103231 256.15409612627 L 356.9204103231 256.15409612627 L 356.9204103231 256.15409612627 L 356.9204103231 256.15409612627 C 357.0204103231 256.15409612627 356.8204103231 256.15409612627 356.8204103231 256.15409612627 L 356.9204103231 256.15409612627 L 357.2204103231 256.25409612627 C 357.6204103231 256.45409612627 358.0204103231 256.65409612627 358.4204103231 256.85409612627 C 359.1204103231 257.35409612627 359.9204103231 257.85409612627 360.5204103231 258.55409612627 C 361.7204103231 259.85409612627 362.4204103231 261.45409612627 362.8204103231 263.05409612627 L 362.8204103231 263.05409612627 C 362.9204103231 263.35409612627 362.7204103231 263.75409612627 362.3204103231 263.75409612627 C 362.1204103231 263.85409612627 361.8204103231 263.75409612627 361.7204103231 263.55409612627 C 360.8204103231 262.35409612627 359.9204103231 261.25409612627 358.8204103231 260.55409612627 C 358.3204103231 260.15409612627 357.7204103231 259.85409612627 357.1204103231 259.65409612627 C 356.8204103231 259.55409612627 356.5204103231 259.45409612627 356.2204103231 259.35409612627 L 356.0204103231 259.25409612627 L 355.9204103231 259.25409612627 L 355.8204103231 259.15409612627 L 355.7204103231 259.15409612627 L 355.2204103231 258.95409612627 C 352.3204103231 257.95409612627 349.3204103231 257.05409612627 346.4204103231 255.25409612627 C 343.6204103231 253.45409612627 341.3204103231 251.15409612627 339.3204103231 248.85409612627 C 338.3204103231 247.75409612627 337.3204103231 246.55409612627 336.3204103231 245.45409612627 C 335.8204103231 244.85409612627 335.3204103231 244.35409612627 334.8204103231 243.85409612627 C 334.3204103231 243.35409612627 333.8204103231 242.85409612627 333.3204103231 242.65409612627 L 333.2204103231 242.65409612627 C 332.7204103231 242.55409612627 332.6204103231 242.15409612627 332.7204103231 241.85409612627 Z M 295.6204103231 263.25409612627 C 295.6204103231 263.05409612627 295.8204103231 262.85409612627 296.1204103231 262.75409612627 C 300.7204103231 262.15409612627 305.5204103231 262.15409612627 310.2204103231 262.85409612627 C 312.6204103231 263.25409612627 314.9204103231 263.85409612627 317.2204103231 264.65409612627 C 319.5204103231 265.55409612627 321.7204103231 266.75409612627 323.7204103231 268.25409612627 C 324.2204103231 268.65409612627 324.8204103231 269.05409612627 325.2204103231 269.45409612627 C 325.7204103231 269.85409612627 326.1204103231 270.25409612627 326.5204103231 270.65409612627 L 329.0204103231 273.15409612627 C 330.6204103231 274.75409612627 332.2204103231 276.35409612627 333.9204103231 277.75409612627 C 335.6204103231 279.15409612627 337.4204103231 280.35409612627 339.4204103231 281.25409612627 C 341.4204103231 282.25409612627 343.5204103231 282.95409612627 345.7204103231 283.65409612627 C 346.0204103231 283.75409612627 346.1204103231 284.05409612627 346.0204103231 284.35409612627 C 345.9204103231 284.55409612627 345.7204103231 284.75409612627 345.5204103231 284.75409612627 C 340.8204103231 284.75409612627 335.9204103231 283.35409612627 331.8204103231 280.55409612627 C 329.8204103231 279.15409612627 328.0204103231 277.55409612627 326.3204103231 275.95409612627 C 324.6204103231 274.35409612627 323.0204103231 272.65409612627 321.4204103231 271.35409612627 C 318.1204103231 268.75409612627 313.9204103231 267.15409612627 309.6204103231 265.95409612627 C 305.3204103231 264.85409612627 300.7204103231 264.25409612627 296.1204103231 263.65409612627 C 295.7204103231 263.85409612627 295.5204103231 263.55409612627 295.6204103231 263.25409612627 Z M 348.2204103231 329.85409612627 C 346.7204103231 331.15409612627 345.1204103231 332.55409612627 343.7204103231 333.95409612627 C 342.2204103231 335.35409612627 340.8204103231 336.85409612627 339.3204103231 338.25409612627 C 336.4204103231 341.15409612627 333.4204103231 344.15409612627 330.0204103231 346.85409612627 C 329.6204103231 347.15409612627 329.1204103231 347.55409612627 328.7204103231 347.85409612627 L 327.4204103231 348.75409612627 C 326.6204103231 349.35409612627 325.8204103231 349.95409612627 324.9204103231 350.55409612627 L 319.9204103231 354.25409612627 C 316.5204103231 356.65409612627 313.1204103231 359.15409612627 309.4204103231 361.15409612627 C 309.1204103231 361.35409612627 308.7204103231 361.25409612627 308.6204103231 360.95409612627 C 308.5204103231 360.65409612627 308.5204103231 360.35409612627 308.7204103231 360.25409612627 L 308.7204103231 360.25409612627 C 311.8204103231 357.55409612627 314.8204103231 354.65409612627 317.9204103231 351.85409612627 L 322.5204103231 347.65409612627 C 323.3204103231 346.95409612627 324.1204103231 346.25409612627 324.9204103231 345.55409612627 L 326.1204103231 344.55409612627 C 326.5204103231 344.25409612627 326.8204103231 343.95409612627 327.2204103231 343.55409612627 C 330.2204103231 340.85409612627 332.9204103231 337.85409612627 335.8204103231 334.85409612627 C 337.2204103231 333.35409612627 338.7204103231 331.85409612627 340.2204103231 330.35409612627 C 341.7204103231 328.85409612627 343.4204103231 327.45409612627 345.0204103231 326.05409612627 C 348.2204103231 323.35409612627 351.5204103231 320.75409612627 354.7204103231 318.15409612627 C 356.3204103231 316.85409612627 357.9204103231 315.55409612627 359.4204103231 314.25409612627 C 361.0204103231 312.95409612627 362.5204103231 311.55409612627 364.0204103231 310.15409612627 C 366.9204103231 307.35409612627 369.7204103231 304.35409612627 372.0204103231 301.05409612627 C 372.6204103231 300.25409612627 373.2204103231 299.35409612627 373.7204103231 298.55409612627 C 374.2204103231 297.75409612627 374.6204103231 296.85409612627 374.9204103231 295.95409612627 C 375.6204103231 294.15409612627 376.0204103231 292.15409612627 376.3204103231 290.05409612627 C 376.4204103231 289.75409612627 376.7204103231 289.45409612627 377.0204103231 289.55409612627 C 377.3204103231 289.55409612627 377.5204103231 289.85409612627 377.5204103231 290.15409612627 C 377.5204103231 292.25409612627 377.5204103231 294.45409612627 377.0204103231 296.55409612627 C 376.8204103231 297.65409612627 376.4204103231 298.65409612627 376.0204103231 299.75409612627 C 375.6204103231 300.75409612627 375.1204103231 301.65409612627 374.5204103231 302.65409612627 C 372.4204103231 306.45409612627 369.8204103231 309.85409612627 366.9204103231 312.95409612627 C 365.5204103231 314.55409612627 364.0204103231 316.05409612627 362.4204103231 317.45409612627 C 360.9204103231 318.85409612627 359.3204103231 320.25409612627 357.7204103231 321.65409612627 C 354.6204103231 324.55409612627 351.3204103231 327.15409612627 348.2204103231 329.85409612627 Z M 400.1204103231 324.95409612627 C 400.0204103231 325.95409612627 399.9204103231 326.95409612627 399.8204103231 327.95409612627 C 399.7204103231 329.05409612627 399.4204103231 330.05409612627 399.1204103231 331.15409612627 C 398.5204103231 333.15409612627 397.7204103231 335.05409612627 396.9204103231 336.85409612627 L 395.8204103231 339.55409612627 C 395.6204103231 339.95409612627 395.4204103231 340.45409612627 395.3204103231 340.85409612627 L 395.1204103231 341.45409612627 L 395.0204103231 341.65409612627 L 394.9204103231 341.95409612627 L 394.8204103231 342.25409612627 L 390.5204103231 353.15409612627 L 388.3204103231 358.65409612627 C 387.6204103231 360.35409612627 386.9204103231 362.15409612627 386.2204103231 364.05409612627 C 385.5204103231 365.85409612627 384.9204103231 367.75409612627 384.1204103231 369.65409612627 C 383.7204103231 370.55409612627 383.3204103231 371.55409612627 382.9204103231 372.45409612627 L 381.6204103231 375.15409612627 C 379.9204103231 378.75409612627 378.1204103231 382.25409612627 376.2204103231 385.75409612627 C 375.3204103231 387.55409612627 374.3204103231 389.25409612627 373.2204103231 390.95409612627 C 372.2204103231 392.65409612627 371.1204103231 394.35409612627 369.9204103231 396.05409612627 C 368.7204103231 397.65409612627 367.4204103231 399.25409612627 365.9204103231 400.75409612627 C 364.4204103231 402.15409612627 362.7204103231 403.45409612627 360.6204103231 403.95409612627 L 360.6204103231 403.95409612627 C 360.3204103231 404.05409612627 360.1204103231 403.85409612627 360.0204103231 403.55409612627 C 359.9204103231 403.35409612627 360.1204103231 403.05409612627 360.3204103231 402.95409612627 C 362.0204103231 402.15409612627 363.3204103231 400.75409612627 364.5204103231 399.35409612627 C 365.7204103231 397.85409612627 366.7204103231 396.25409612627 367.6204103231 394.55409612627 C 369.4204103231 391.15409612627 371.0204103231 387.55409612627 372.7204103231 384.05409612627 C 374.3204103231 380.45409612627 375.9204103231 376.85409612627 377.5204103231 373.35409612627 C 377.9204103231 372.45409612627 378.3204103231 371.45409612627 378.7204103231 370.65409612627 C 379.0204103231 369.85409612627 379.4204103231 368.85409612627 379.7204103231 368.05409612627 C 380.4204103231 366.25409612627 381.0204103231 364.45409612627 381.6204103231 362.55409612627 C 382.2204103231 360.65409612627 382.9204103231 358.75409612627 383.7204103231 356.85409612627 L 385.9204103231 351.45409612627 C 386.7204103231 349.65409612627 387.4204103231 347.75409612627 388.2204103231 345.95409612627 L 390.7204103231 340.55409612627 L 390.9204103231 340.25409612627 L 390.9204103231 340.15409612627 L 390.9204103231 340.15409612627 L 390.9204103231 340.15409612627 C 390.9204103231 340.05409612627 390.9204103231 340.25409612627 390.9204103231 340.25409612627 L 391.0204103231 340.05409612627 L 391.3204103231 339.35409612627 C 391.5204103231 338.85409612627 391.7204103231 338.35409612627 391.9204103231 337.95409612627 C 392.3204103231 337.05409612627 392.8204103231 336.15409612627 393.3204103231 335.25409612627 C 394.2204103231 333.55409612627 395.1204103231 331.85409612627 395.8204103231 330.15409612627 C 396.1204103231 329.35409612627 396.4204103231 328.45409612627 396.6204103231 327.55409612627 C 396.8204103231 326.65409612627 397.0204103231 325.65409612627 397.2204103231 324.75409612627 C 397.5204103231 322.85409612627 397.7204103231 321.05409612627 397.7204103231 319.15409612627 L 397.7204103231 319.05409612627 C 397.9204103231 317.05409612627 397.1204103231 314.75409612627 397.1204103231 312.35409612627 C 397.1204103231 312.05409612627 397.3204103231 311.85409612627 397.6204103231 311.85409612627 C 397.8204103231 311.85409612627 398.0204103231 312.05409612627 398.1204103231 312.25409612627 C 398.3204103231 313.35409612627 398.7204103231 314.35409612627 399.1204103231 315.45409612627 C 399.5204103231 316.55409612627 399.8204103231 317.75409612627 400.0204103231 319.05409612627 L 400.0204103231 318.95409612627 C 400.1204103231 320.85409612627 400.2204103231 322.95409612627 400.1204103231 324.95409612627 Z M 408.8204103231 294.25409612627 C 408.6204103231 294.45409612627 408.3204103231 294.55409612627 408.1204103231 294.45409612627 C 405.5204103231 293.15409612627 402.9204103231 291.65409612627 400.5204103231 289.75409612627 C 398.2204103231 287.85409612627 396.1204103231 285.65409612627 394.1204103231 283.45409612627 C 392.1204103231 281.25409612627 390.3204103231 278.95409612627 388.5204103231 276.55409612627 C 387.6204103231 275.45409612627 386.7204103231 274.15409612627 385.8204103231 273.15409612627 C 384.9204103231 272.05409612627 384.0204103231 271.05409612627 383.0204103231 270.15409612627 C 381.1204103231 268.35409612627 378.9204103231 267.05409612627 376.7204103231 266.85409612627 C 375.5204103231 266.75409612627 374.6204103231 266.85409612627 373.6204103231 267.35409612627 C 372.6204103231 267.75409612627 371.6204103231 268.45409612627 370.7204103231 269.35409612627 C 369.8204103231 270.25409612627 369.0204103231 271.25409612627 368.4204103231 272.25409612627 C 368.1204103231 272.75409612627 367.8204103231 273.35409612627 367.5204103231 273.95409612627 C 367.4204103231 274.25409612627 367.3204103231 274.45409612627 367.2204103231 274.75409612627 L 367.2204103231 274.75409612627 L 367.2204103231 274.85409612627 L 367.1204103231 275.05409612627 L 367.0204103231 275.55409612627 C 366.6204103231 276.95409612627 366.3204103231 278.35409612627 365.8204103231 279.85409612627 C 365.5204103231 280.65409612627 365.3204103231 281.35409612627 364.9204103231 282.25409612627 L 364.4204103231 283.35409612627 C 364.2204103231 283.75409612627 364.0204103231 284.05409612627 363.8204103231 284.45409612627 C 362.1204103231 287.25409612627 360.0204103231 289.55409612627 357.9204103231 291.65409612627 L 357.5204103231 292.05409612627 L 357.3204103231 292.15409612627 L 357.2204103231 292.15409612627 L 357.1204103231 292.25409612627 L 356.9204103231 292.45409612627 L 356.0204103231 293.15409612627 C 355.4204103231 293.65409612627 354.8204103231 294.05409612627 354.2204103231 294.55409612627 C 353.0204103231 295.45409612627 351.7204103231 296.35409612627 350.5204103231 297.15409612627 C 345.5204103231 300.45409612627 340.2204103231 303.25409612627 334.8204103231 305.65409612627 C 323.9204103231 310.45409612627 312.4204103231 313.75409612627 300.8204103231 315.25409612627 L 300.8204103231 315.25409612627 C 300.5204103231 315.25409612627 300.2204103231 315.05409612627 300.1204103231 314.75409612627 C 300.1204103231 314.45409612627 300.3204103231 314.15409612627 300.5204103231 314.15409612627 C 311.8204103231 311.25409612627 322.8204103231 307.35409612627 333.1204103231 302.15409612627 C 335.7204103231 300.85409612627 338.2204103231 299.45409612627 340.7204103231 298.05409612627 C 343.2204103231 296.55409612627 345.6204103231 295.05409612627 347.9204103231 293.45409612627 C 349.1204103231 292.65409612627 350.2204103231 291.75409612627 351.3204103231 290.95409612627 C 351.9204103231 290.55409612627 352.4204103231 290.05409612627 352.9204103231 289.65409612627 L 353.7204103231 288.95409612627 L 353.9204103231 288.75409612627 L 354.0204103231 288.65409612627 L 354.0204103231 288.65409612627 L 354.4204103231 288.25409612627 C 356.4204103231 286.25409612627 358.2204103231 284.15409612627 359.6204103231 281.95409612627 C 359.8204103231 281.65409612627 359.9204103231 281.45409612627 360.1204103231 281.15409612627 L 360.5204103231 280.25409612627 C 360.7204103231 279.75409612627 361.0204103231 279.15409612627 361.1204103231 278.55409612627 C 361.5204103231 277.25409612627 361.8204103231 275.95409612627 362.2204103231 274.45409612627 L 362.4204103231 273.85409612627 L 362.5204103231 273.55409612627 L 362.5204103231 273.45409612627 L 362.5204103231 273.35409612627 L 362.6204103231 273.15409612627 C 362.7204103231 272.85409612627 362.9204103231 272.35409612627 363.1204103231 271.95409612627 C 363.5204103231 271.15409612627 363.9204103231 270.45409612627 364.3204103231 269.75409612627 C 365.2204103231 268.35409612627 366.2204103231 267.05409612627 367.4204103231 265.85409612627 C 368.6204103231 264.65409612627 370.0204103231 263.65409612627 371.7204103231 262.95409612627 C 372.5204103231 262.55409612627 373.5204103231 262.35409612627 374.4204103231 262.25409612627 C 374.9204103231 262.15409612627 375.4204103231 262.15409612627 375.8204103231 262.15409612627 C 376.0204103231 262.15409612627 376.2204103231 262.15409612627 376.5204103231 262.15409612627 C 376.8204103231 262.15409612627 377.0204103231 262.15409612627 377.2204103231 262.25409612627 C 379.0204103231 262.45409612627 380.7204103231 263.15409612627 382.2204103231 264.05409612627 C 383.7204103231 264.95409612627 384.9204103231 265.95409612627 386.1204103231 267.15409612627 C 387.2204103231 268.35409612627 388.2204103231 269.55409612627 389.1204103231 270.75409612627 C 390.0204103231 272.05409612627 390.8204103231 273.15409612627 391.6204103231 274.45409612627 C 393.2204103231 276.85409612627 394.8204103231 279.25409612627 396.6204103231 281.55409612627 C 398.3204103231 283.85409612627 400.1204103231 286.15409612627 402.1204103231 288.15409612627 C 404.0204103231 290.15409612627 406.4204103231 291.85409612627 408.7204103231 293.65409612627 C 408.9204103231 293.65409612627 409.0204103231 293.95409612627 408.8204103231 294.25409612627 Z M 408.2204103231 282.25409612627 C 407.1204103231 282.05409612627 406.1204103231 281.85409612627 405.0204103231 281.25409612627 C 404.8204103231 281.15409612627 404.7204103231 280.85409612627 404.8204103231 280.55409612627 C 404.9204103231 280.35409612627 405.1204103231 280.25409612627 405.3204103231 280.35409612627 L 405.3204103231 280.35409612627 C 406.2204103231 280.55409612627 407.3204103231 280.45409612627 408.3204103231 280.45409612627 C 409.3204103231 280.45409612627 410.3204103231 280.35409612627 411.4204103231 280.25409612627 C 413.5204103231 280.15409612627 415.5204103231 279.95409612627 417.6204103231 279.85409612627 C 421.7204103231 279.55409612627 425.9204103231 279.25409612627 430.0204103231 279.05409612627 C 434.3204103231 278.85409612627 438.6204103231 279.15409612627 442.8204103231 279.75409612627 C 444.9204103231 280.05409612627 447.0204103231 280.55409612627 449.1204103231 281.15409612627 C 451.1204103231 281.85409612627 453.2204103231 282.65409612627 455.0204103231 283.95409612627 C 455.2204103231 284.15409612627 455.3204103231 284.45409612627 455.1204103231 284.65409612627 C 455.0204103231 284.85409612627 454.7204103231 284.85409612627 454.5204103231 284.85409612627 L 454.5204103231 284.85409612627 C 452.6204103231 284.15409612627 450.6204103231 283.85409612627 448.6204103231 283.55409612627 C 446.6204103231 283.25409612627 444.6204103231 283.15409612627 442.5204103231 283.05409612627 C 438.4204103231 282.85409612627 434.3204103231 282.85409612627 430.3204103231 283.05409612627 C 426.1204103231 283.25409612627 421.9204103231 283.35409612627 417.7204103231 283.25409612627 C 415.6204103231 283.15409612627 413.5204103231 283.05409612627 411.4204103231 282.85409612627 C 410.3204103231 282.55409612627 409.2204103231 282.45409612627 408.2204103231 282.25409612627 Z M 436.8204103231 383.25409612627 C 436.2204103231 387.35409612627 435.0204103231 391.35409612627 433.2204103231 395.05409612627 C 433.1204103231 395.35409612627 432.8204103231 395.45409612627 432.5204103231 395.25409612627 C 432.3204103231 395.15409612627 432.2204103231 394.85409612627 432.2204103231 394.65409612627 C 433.3204103231 390.85409612627 434.0204103231 386.95409612627 434.1204103231 383.05409612627 C 434.1204103231 381.15409612627 434.2204103231 379.15409612627 433.9204103231 377.25409612627 C 433.6204103231 375.35409612627 433.2204103231 373.55409612627 432.7204103231 371.65409612627 C 432.2204103231 369.75409612627 431.6204103231 367.75409612627 431.1204103231 365.75409612627 C 430.7204103231 363.75409612627 430.3204103231 361.75409612627 429.9204103231 359.75409612627 C 429.5204103231 357.75409612627 429.2204103231 355.75409612627 429.0204103231 353.65409612627 C 428.8204103231 351.55409612627 428.7204103231 349.55409612627 428.6204103231 347.45409612627 C 428.5204103231 343.45409612627 428.5204103231 339.55409612627 427.6204103231 335.85409612627 C 426.8204103231 332.05409612627 425.8204103231 328.15409612627 424.8204103231 324.25409612627 L 424.1204103231 321.35409612627 L 423.7204103231 319.85409612627 L 423.3204103231 318.45409612627 C 422.8204103231 316.45409612627 422.3204103231 314.75409612627 421.5204103231 313.15409612627 C 421.1204103231 312.35409612627 420.5204103231 311.55409612627 420.0204103231 310.75409612627 C 419.4204103231 309.95409612627 418.8204103231 309.15409612627 418.2204103231 308.35409612627 C 417.0204103231 306.75409612627 415.7204103231 305.15409612627 414.6204103231 303.45409612627 L 414.6204103231 303.45409612627 C 414.4204103231 303.25409612627 414.5204103231 302.85409612627 414.8204103231 302.75409612627 C 415.0204103231 302.65409612627 415.3204103231 302.65409612627 415.5204103231 302.85409612627 C 416.8204103231 304.35409612627 418.3204103231 305.65409612627 419.8204103231 307.05409612627 C 420.5204103231 307.75409612627 421.3204103231 308.45409612627 422.0204103231 309.25409612627 C 422.7204103231 310.05409612627 423.4204103231 310.75409612627 424.0204103231 311.75409612627 C 425.3204103231 313.55409612627 426.0204103231 315.65409612627 426.7204103231 317.55409612627 L 427.2204103231 319.05409612627 L 427.7204103231 320.45409612627 L 428.6204103231 323.35409612627 C 429.8204103231 327.15409612627 431.0204103231 331.05409612627 432.0204103231 335.05409612627 C 433.0204103231 339.25409612627 433.1204103231 343.45409612627 433.2204103231 347.45409612627 C 433.2204103231 349.45409612627 433.3204103231 351.45409612627 433.5204103231 353.35409612627 C 433.7204103231 355.25409612627 433.9204103231 357.25409612627 434.2204103231 359.15409612627 C 434.5204103231 361.15409612627 434.8204103231 363.05409612627 435.2204103231 365.05409612627 C 435.5204103231 366.95409612627 436.0204103231 368.85409612627 436.4204103231 370.85409612627 C 436.8204103231 372.85409612627 437.2204103231 374.95409612627 437.3204103231 377.05409612627 C 437.2204103231 379.05409612627 437.1204103231 381.15409612627 436.8204103231 383.25409612627 Z M 467.4204103231 316.45409612627 C 467.2204103231 316.65409612627 466.8204103231 316.65409612627 466.6204103231 316.45409612627 L 466.6204103231 316.45409612627 C 465.1204103231 315.55409612627 463.7204103231 314.65409612627 462.3204103231 313.85409612627 C 460.9204103231 313.05409612627 459.4204103231 312.35409612627 457.9204103231 311.85409612627 C 456.4204103231 311.25409612627 454.8204103231 310.75409612627 453.2204103231 310.35409612627 C 452.4204103231 310.15409612627 451.6204103231 309.85409612627 450.8204103231 309.65409612627 L 448.4204103231 309.05409612627 C 447.1204103231 308.75409612627 445.4204103231 308.65409612627 443.7204103231 308.55409612627 C 442.0204103231 308.45409612627 440.3204103231 308.45409612627 438.5204103231 308.25409612627 C 436.7204103231 308.05409612627 434.9204103231 307.75409612627 433.2204103231 307.15409612627 C 431.5204103231 306.55409612627 429.7204103231 305.45409612627 428.6204103231 304.05409612627 L 428.6204103231 304.05409612627 C 428.4204103231 303.75409612627 428.4204103231 303.35409612627 428.7204103231 303.05409612627 C 428.9204103231 302.85409612627 429.3204103231 302.85409612627 429.5204103231 303.05409612627 C 432.2204103231 304.85409612627 435.4204103231 304.95409612627 438.7204103231 304.95409612627 L 443.8204103231 304.85409612627 C 444.7204103231 304.85409612627 445.6204103231 304.85409612627 446.5204103231 304.95409612627 C 447.4204103231 305.05409612627 448.3204103231 305.15409612627 449.3204103231 305.35409612627 C 450.1204103231 305.55409612627 451.0204103231 305.75409612627 451.8204103231 306.05409612627 C 452.6204103231 306.25409612627 453.5204103231 306.55409612627 454.3204103231 306.85409612627 C 456.0204103231 307.45409612627 457.6204103231 308.05409612627 459.2204103231 308.95409612627 C 460.8204103231 309.75409612627 462.3204103231 310.75409612627 463.7204103231 311.95409612627 C 465.1204103231 313.15409612627 466.3204103231 314.35409612627 467.4204103231 315.75409612627 C 467.7204103231 315.85409612627 467.7204103231 316.25409612627 467.4204103231 316.45409612627 Z"/><path fill="#ffffff" transform="matrix(1.3796686875385644 0 0 1.3796686875385646 -14.308431341537245 -15.016606673351909)" d="M 210.1204103231 408.55409612627 C 204.7204103231 399.15409612627 200.1204103231 389.15409612627 196.4204103231 378.85409612627 C 192.7204103231 368.55409612627 190.0204103231 357.85409612627 188.1204103231 346.95409612627 C 186.3204103231 336.05409612627 185.4204103231 325.05409612627 185.4204103231 313.95409612627 C 185.4204103231 302.85409612627 186.4204103231 291.75409612627 188.4204103231 280.85409612627 C 192.3204103231 258.95409612627 200.0204103231 237.65409612627 211.2204103231 218.35409612627 C 222.4204103231 198.95409612627 236.9204103231 181.45409612627 254.0204103231 166.85409612627 C 271.1204103231 152.25409612627 290.7204103231 140.55409612627 311.8204103231 132.55409612627 C 322.3204103231 128.55409612627 333.2204103231 125.45409612627 344.3204103231 123.25409612627 C 355.4204103231 121.15409612627 366.7204103231 119.95409612627 377.9204103231 119.65409612627 C 400.5204103231 119.15409612627 423.2204103231 122.55409612627 444.6204103231 129.65409612627 C 466.1204103231 136.75409612627 486.3204103231 147.65409612627 504.1204103231 161.55409612627 C 521.9204103231 175.45409612627 537.3204103231 192.45409612627 549.5204103231 211.45409612627 C 561.7204103231 230.45409612627 570.5204103231 251.65409612627 575.5204103231 273.55409612627 C 578.0204103231 284.55409612627 579.6204103231 295.75409612627 580.2204103231 306.95409612627 C 580.5204103231 312.55409612627 580.6204103231 318.25409612627 580.4204103231 323.75409612627 C 580.2204103231 329.45409612627 579.9204103231 334.95409612627 579.2204103231 340.55409612627 C 576.6204103231 362.85409612627 570.2204103231 384.75409612627 560.3204103231 404.85409612627 C 555.4204103231 414.85409612627 549.6204103231 424.55409612627 543.0204103231 433.55409612627 C 536.4204103231 442.55409612627 529.1204103231 451.05409612627 521.1204103231 458.85409612627 C 505.1204103231 474.35409612627 486.6204103231 487.25409612627 466.5204103231 496.45409612627 C 446.4204103231 505.65409612627 424.7204103231 511.45409612627 402.8204103231 513.25409612627 C 380.9204103231 515.15409612627 358.8204103231 513.25409612627 337.7204103231 507.65409612627 C 337.4204103231 507.55409612627 337.2204103231 507.25409612627 337.3204103231 506.95409612627 C 337.4204103231 506.65409612627 337.7204103231 506.55409612627 337.9204103231 506.55409612627 C 359.2204103231 510.65409612627 381.0204103231 511.25409612627 402.2204103231 508.35409612627 C 423.4204103231 505.35409612627 444.1204103231 499.05409612627 463.0204103231 489.25409612627 C 481.9204103231 479.55409612627 499.2204103231 466.85409612627 513.8204103231 451.55409612627 C 521.1204103231 443.95409612627 527.8204103231 435.75409612627 533.7204103231 426.95409612627 C 539.6204103231 418.25409612627 544.9204103231 409.05409612627 549.2204103231 399.55409612627 C 558.0204103231 380.45409612627 563.5204103231 359.95409612627 565.4204103231 339.05409612627 C 565.9204103231 333.85409612627 566.2204103231 328.55409612627 566.2204103231 323.45409612627 C 566.3204103231 318.15409612627 566.1204103231 312.95409612627 565.7204103231 307.75409612627 C 564.9204103231 297.35409612627 563.3204103231 286.95409612627 560.8204103231 276.85409612627 C 550.9204103231 236.25409612627 526.8204103231 199.55409612627 493.9204103231 174.15409612627 C 477.5204103231 161.35409612627 458.9204103231 151.45409612627 439.2204103231 144.95409612627 C 429.4204103231 141.65409612627 419.2204103231 139.25409612627 408.9204103231 137.65409612627 C 398.6204103231 136.05409612627 388.2204103231 135.35409612627 377.8204103231 135.45409612627 C 367.4204103231 135.55409612627 357.0204103231 136.55409612627 346.8204103231 138.45409612627 C 336.6204103231 140.25409612627 326.5204103231 142.95409612627 316.7204103231 146.55409612627 C 306.9204103231 150.15409612627 297.4204103231 154.45409612627 288.3204103231 159.65409612627 C 279.2204103231 164.75409612627 270.6204103231 170.75409612627 262.4204103231 177.25409612627 C 229.8204103231 203.45409612627 206.3204103231 241.15409612627 197.0204103231 282.45409612627 C 192.4204103231 303.15409612627 191.1204103231 324.65409612627 193.4204103231 345.95409612627 C 194.5204103231 356.55409612627 196.5204103231 367.15409612627 199.5204103231 377.45409612627 C 202.4204103231 387.85409612627 206.2204103231 397.95409612627 210.7204103231 407.75409612627 C 210.8204103231 408.05409612627 210.7204103231 408.35409612627 210.4204103231 408.45409612627 C 210.6204103231 408.85409612627 210.3204103231 408.75409612627 210.1204103231 408.55409612627 Z"/><path fill="#ffffff" transform="matrix(1.3796686875385644 0 0 1.3796686875385646 -14.308431341537245 -15.016606673351909)" d="M 289.2204103231 357.95409612627 C 289.1204103231 357.75409612627 289.0204103231 357.65409612627 288.9204103231 357.45409612627 L 167.4204103231 507.75409612627 C 167.3204103231 507.85409612627 167.2204103231 508.05409612627 167.1204103231 508.15409612627 C 163.6204103231 512.85409612627 164.6204103231 519.55409612627 169.3204103231 522.95409612627 C 174.0204103231 526.45409612627 180.7204103231 525.45409612627 184.1204103231 520.75409612627 L 295.5204103231 369.75409612627 C 293.7204103231 366.55409612627 292.0204103231 363.35409612627 290.2204103231 359.95409612627 L 289.2204103231 357.95409612627 Z"/><path fill="#ffffff" transform="matrix(1.3796686875385644 0 0 1.3796686875385646 -14.308431341537245 -15.016606673351909)" d="M 396.9204103231 232.35409612627 L 413.3204103231 210.05409612627 C 414.0204103231 209.15409612627 413.8204103231 207.85409612627 412.9204103231 207.15409612627 C 412.0204103231 206.45409612627 410.7204103231 206.55409612627 409.9204103231 207.45409612627 L 390.3204103231 231.85409612627 C 390.7204103231 231.85409612627 391.1204103231 231.95409612627 391.5204103231 231.95409612627 C 393.3204103231 232.05409612627 395.1204103231 232.15409612627 396.9204103231 232.35409612627 Z"/><path fill="#ffffff" transform="matrix(1.3796686875385644 0 0 1.3796686875385646 -14.308431341537245 -15.016606673351909)" d="M 526.8204103231 298.75409612627 C 526.4204103231 298.15409612627 525.5204103231 298.05409612627 525.0204103231 298.55409612627 L 468.9204103231 343.25409612627 C 468.9204103231 343.35409612627 468.9204103231 343.45409612627 468.8204103231 343.55409612627 C 468.1204103231 347.25409612627 467.3204103231 350.75409612627 466.4204103231 354.15409612627 L 526.6204103231 300.45409612627 C 527.2204103231 300.15409612627 527.2204103231 299.35409612627 526.8204103231 298.75409612627 Z"/><path fill="#ffffff" transform="matrix(1.3796686875385644 0 0 1.3796686875385646 -14.308431341537245 -15.016606673351909)" d="M 368.9204103231 423.05409612627 L 255.8204103231 513.15409612627 C 255.7204103231 513.25409612627 255.5204103231 513.45409612627 255.4204103231 513.55409612627 C 251.0204103231 517.45409612627 250.6204103231 524.25409612627 254.5204103231 528.65409612627 C 258.4204103231 533.05409612627 265.2204103231 533.45409612627 269.6204103231 529.55409612627 L 388.9204103231 423.25409612627 C 385.9204103231 423.55409612627 382.8204103231 423.75409612627 379.8204103231 423.75409612627 C 376.1204103231 423.75409612627 372.5204103231 423.45409612627 368.9204103231 423.05409612627 Z"/><path id="text" fill="#ffffff" transform="matrix(0.9789694839841002 0 0 0.9789694839841003 -6.103262876713375 738.1293052339644)" d="M 237.64833743366 112.82080957736 L 224.19521243366 112.82080957736 L 224.19521243366 45.60205957736 L 271.25771243366 45.60205957736 L 271.25771243366 59.05518457736 L 237.64833743366 59.05518457736 L 237.64833743366 72.50830957736 L 257.80458743366 72.50830957736 L 257.80458743366 85.96143457736 L 237.64833743366 85.96143457736 L 237.64833743366 112.82080957736 Z M 345.43458743366 79.49268457736 C 345.43458743366 82.68018457736 345.02052493366 85.75049707736 344.19239993366 88.70362207736 C 343.36427493366 91.65674707736 342.20021243366 94.42237207736 340.70021243366 97.00049707736 C 339.20021243366 99.57862207736 337.38771243366 101.93018457736 335.26271243366 104.05518457736 C 333.13771243366 106.18018457736 330.79396243366 108.00049707736 328.23146243366 109.51612207736 C 325.66896243366 111.03174707736 322.90333743366 112.20362207736 319.93458743366 113.03174707736 C 316.96583743366 113.85987207736 313.88771243366 114.27393457736 310.70021243366 114.27393457736 C 307.51271243366 114.27393457736 304.44239993366 113.85987207736 301.48927493366 113.03174707736 C 298.53614993366 112.20362207736 295.77052493366 111.03174707736 293.19239993366 109.51612207736 C 290.61427493366 108.00049707736 288.26271243366 106.18018457736 286.13771243366 104.05518457736 C 284.01271243366 101.93018457736 282.19239993366 99.57862207736 280.67677493366 97.00049707736 C 279.16114993366 94.42237207736 277.98927493366 91.65674707736 277.16114993366 88.70362207736 C 276.33302493366 85.75049707736 275.91896243366 82.68018457736 275.91896243366 79.49268457736 C 275.91896243366 76.30518457736 276.33302493366 73.22705957736 277.16114993366 70.25830957736 C 277.98927493366 67.28955957736 279.16114993366 64.52393457736 280.67677493366 61.96143457736 C 282.19239993366 59.39893457736 284.01271243366 57.05518457736 286.13771243366 54.93018457736 C 288.26271243366 52.80518457736 290.61427493366 50.99268457736 293.19239993366 49.49268457736 C 295.77052493366 47.99268457736 298.53614993366 46.82862207736 301.48927493366 46.00049707736 C 304.44239993366 45.17237207736 307.51271243366 44.75830957736 310.70021243366 44.75830957736 C 313.88771243366 44.75830957736 316.96583743366 45.17237207736 319.93458743366 46.00049707736 C 322.90333743366 46.82862207736 325.66896243366 47.99268457736 328.23146243366 49.49268457736 C 330.79396243366 50.99268457736 333.13771243366 52.80518457736 335.26271243366 54.93018457736 C 337.38771243366 57.05518457736 339.20021243366 59.39893457736 340.70021243366 61.96143457736 C 342.20021243366 64.52393457736 343.36427493366 67.28955957736 344.19239993366 70.25830957736 C 345.02052493366 73.22705957736 345.43458743366 76.30518457736 345.43458743366 79.49268457736 Z M 332.07521243366 79.49268457736 C 332.07521243366 76.55518457736 331.51271243366 73.78174707736 330.38771243366 71.17237207736 C 329.26271243366 68.56299707736 327.73927493366 66.29737207736 325.81739993366 64.37549707736 C 323.89552493366 62.45362207736 321.62989993366 60.93018457736 319.02052493366 59.80518457736 C 316.41114993366 58.68018457736 313.63771243366 58.11768457736 310.70021243366 58.11768457736 C 307.73146243366 58.11768457736 304.95021243366 58.68018457736 302.35646243366 59.80518457736 C 299.76271243366 60.93018457736 297.49708743366 62.45362207736 295.55958743366 64.37549707736 C 293.62208743366 66.29737207736 292.09083743366 68.56299707736 290.96583743366 71.17237207736 C 289.84083743366 73.78174707736 289.27833743366 76.55518457736 289.27833743366 79.49268457736 C 289.27833743366 82.43018457736 289.84083743366 85.18799707736 290.96583743366 87.76612207736 C 292.09083743366 90.34424707736 293.62208743366 92.60205957736 295.55958743366 94.53955957736 C 297.49708743366 96.47705957736 299.76271243366 98.00830957736 302.35646243366 99.13330957736 C 304.95021243366 100.25830957736 307.73146243366 100.82080957736 310.70021243366 100.82080957736 C 313.63771243366 100.82080957736 316.41114993366 100.25830957736 319.02052493366 99.13330957736 C 321.62989993366 98.00830957736 323.89552493366 96.47705957736 325.81739993366 94.53955957736 C 327.73927493366 92.60205957736 329.26271243366 90.34424707736 330.38771243366 87.76612207736 C 331.51271243366 85.18799707736 332.07521243366 82.43018457736 332.07521243366 79.49268457736 Z M 422.98646243366 79.49268457736 C 422.98646243366 82.68018457736 422.57239993366 85.75049707736 421.74427493366 88.70362207736 C 420.91614993366 91.65674707736 419.75208743366 94.42237207736 418.25208743366 97.00049707736 C 416.75208743366 99.57862207736 414.93958743366 101.93018457736 412.81458743366 104.05518457736 C 410.68958743366 106.18018457736 408.34583743366 108.00049707736 405.78333743366 109.51612207736 C 403.22083743366 111.03174707736 400.45521243366 112.20362207736 397.48646243366 113.03174707736 C 394.51771243366 113.85987207736 391.43958743366 114.27393457736 388.25208743366 114.27393457736 C 385.06458743366 114.27393457736 381.99427493366 113.85987207736 379.04114993366 113.03174707736 C 376.08802493366 112.20362207736 373.32239993366 111.03174707736 370.74427493366 109.51612207736 C 368.16614993366 108.00049707736 365.81458743366 106.18018457736 363.68958743366 104.05518457736 C 361.56458743366 101.93018457736 359.74427493366 99.57862207736 358.22864993366 97.00049707736 C 356.71302493366 94.42237207736 355.54114993366 91.65674707736 354.71302493366 88.70362207736 C 353.88489993366 85.75049707736 353.47083743366 82.68018457736 353.47083743366 79.49268457736 C 353.47083743366 76.30518457736 353.88489993366 73.22705957736 354.71302493366 70.25830957736 C 355.54114993366 67.28955957736 356.71302493366 64.52393457736 358.22864993366 61.96143457736 C 359.74427493366 59.39893457736 361.56458743366 57.05518457736 363.68958743366 54.93018457736 C 365.81458743366 52.80518457736 368.16614993366 50.99268457736 370.74427493366 49.49268457736 C 373.32239993366 47.99268457736 376.08802493366 46.82862207736 379.04114993366 46.00049707736 C 381.99427493366 45.17237207736 385.06458743366 44.75830957736 388.25208743366 44.75830957736 C 391.43958743366 44.75830957736 394.51771243366 45.17237207736 397.48646243366 46.00049707736 C 400.45521243366 46.82862207736 403.22083743366 47.99268457736 405.78333743366 49.49268457736 C 408.34583743366 50.99268457736 410.68958743366 52.80518457736 412.81458743366 54.93018457736 C 414.93958743366 57.05518457736 416.75208743366 59.39893457736 418.25208743366 61.96143457736 C 419.75208743366 64.52393457736 420.91614993366 67.28955957736 421.74427493366 70.25830957736 C 422.57239993366 73.22705957736 422.98646243366 76.30518457736 422.98646243366 79.49268457736 Z M 409.62708743366 79.49268457736 C 409.62708743366 76.55518457736 409.06458743366 73.78174707736 407.93958743366 71.17237207736 C 406.81458743366 68.56299707736 405.29114993366 66.29737207736 403.36927493366 64.37549707736 C 401.44739993366 62.45362207736 399.18177493366 60.93018457736 396.57239993366 59.80518457736 C 393.96302493366 58.68018457736 391.18958743366 58.11768457736 388.25208743366 58.11768457736 C 385.28333743366 58.11768457736 382.50208743366 58.68018457736 379.90833743366 59.80518457736 C 377.31458743366 60.93018457736 375.04896243366 62.45362207736 373.11146243366 64.37549707736 C 371.17396243366 66.29737207736 369.64271243366 68.56299707736 368.51771243366 71.17237207736 C 367.39271243366 73.78174707736 366.83021243366 76.55518457736 366.83021243366 79.49268457736 C 366.83021243366 82.43018457736 367.39271243366 85.18799707736 368.51771243366 87.76612207736 C 369.64271243366 90.34424707736 371.17396243366 92.60205957736 373.11146243366 94.53955957736 C 375.04896243366 96.47705957736 377.31458743366 98.00830957736 379.90833743366 99.13330957736 C 382.50208743366 100.25830957736 385.28333743366 100.82080957736 388.25208743366 100.82080957736 C 391.18958743366 100.82080957736 393.96302493366 100.25830957736 396.57239993366 99.13330957736 C 399.18177493366 98.00830957736 401.44739993366 96.47705957736 403.36927493366 94.53955957736 C 405.29114993366 92.60205957736 406.81458743366 90.34424707736 407.93958743366 87.76612207736 C 409.06458743366 85.18799707736 409.62708743366 82.43018457736 409.62708743366 79.49268457736 Z M 488.53833743366 79.21143457736 C 488.53833743366 82.30518457736 488.13989993366 85.28174707736 487.34302493366 88.14112207736 C 486.54614993366 91.00049707736 485.41333743366 93.67237207736 483.94458743366 96.15674707736 C 482.47583743366 98.64112207736 480.72583743366 100.90674707736 478.69458743366 102.95362207736 C 476.66333743366 105.00049707736 474.39771243366 106.75830957736 471.89771243366 108.22705957736 C 469.39771243366 109.69580957736 466.71802493366 110.82862207736 463.85864993366 111.62549707736 C 460.99927493366 112.42237207736 458.02271243366 112.82080957736 454.92896243366 112.82080957736 L 434.67896243366 112.82080957736 L 434.67896243366 45.60205957736 L 454.92896243366 45.60205957736 C 458.02271243366 45.60205957736 460.99927493366 46.00049707736 463.85864993366 46.79737207736 C 466.71802493366 47.59424707736 469.39771243366 48.72705957736 471.89771243366 50.19580957736 C 474.39771243366 51.66455957736 476.66333743366 53.42237207736 478.69458743366 55.46924707736 C 480.72583743366 57.51612207736 482.47583743366 59.78174707736 483.94458743366 62.26612207736 C 485.41333743366 64.75049707736 486.54614993366 67.42237207736 487.34302493366 70.28174707736 C 488.13989993366 73.14112207736 488.53833743366 76.11768457736 488.53833743366 79.21143457736 Z M 475.08521243366 79.21143457736 C 475.08521243366 76.43018457736 474.56177493366 73.82080957736 473.51489993366 71.38330957736 C 472.46802493366 68.94580957736 471.03052493366 66.81299707736 469.20239993366 64.98487207736 C 467.37427493366 63.15674707736 465.23364993366 61.71143457736 462.78052493366 60.64893457736 C 460.32739993366 59.58643457736 457.71021243366 59.05518457736 454.92896243366 59.05518457736 L 448.22583743366 59.05518457736 L 448.22583743366 99.36768457736 L 454.92896243366 99.36768457736 C 457.71021243366 99.36768457736 460.32739993366 98.84424707736 462.78052493366 97.79737207736 C 465.23364993366 96.75049707736 467.37427493366 95.31299707736 469.20239993366 93.48487207736 C 471.03052493366 91.65674707736 472.46802493366 89.51612207736 473.51489993366 87.06299707736 C 474.56177493366 84.60987207736 475.08521243366 81.99268457736 475.08521243366 79.21143457736 Z M 513.77771243366 112.82080957736 L 500.32458743366 112.82080957736 L 500.32458743366 45.60205957736 L 513.77771243366 45.60205957736 L 513.77771243366 112.82080957736 Z M 575.20458743366 112.82080957736 L 529.12646243366 112.82080957736 L 529.12646243366 45.60205957736 L 575.20458743366 45.60205957736 L 575.20458743366 59.05518457736 L 542.57958743366 59.05518457736 L 542.57958743366 72.50830957736 L 564.65771243366 72.50830957736 L 564.65771243366 85.96143457736 L 542.57958743366 85.96143457736 L 542.57958743366 99.36768457736 L 575.20458743366 99.36768457736 L 575.20458743366 112.82080957736 Z M 651.72521243366 79.49268457736 C 651.72521243366 82.68018457736 651.31114993366 85.75049707736 650.48302493366 88.70362207736 C 649.65489993366 91.65674707736 648.49083743366 94.42237207736 646.99083743366 97.00049707736 C 645.49083743366 99.57862207736 643.67833743366 101.93018457736 641.55333743366 104.05518457736 C 639.42833743366 106.18018457736 637.08458743366 108.00049707736 634.52208743366 109.51612207736 C 631.95958743366 111.03174707736 629.19396243366 112.20362207736 626.22521243366 113.03174707736 C 623.25646243366 113.85987207736 620.17833743366 114.27393457736 616.99083743366 114.27393457736 C 613.80333743366 114.27393457736 610.73302493366 113.85987207736 607.77989993366 113.03174707736 C 604.82677493366 112.20362207736 602.06114993366 111.03174707736 599.48302493366 109.51612207736 C 596.90489993366 108.00049707736 594.55333743366 106.18018457736 592.42833743366 104.05518457736 C 590.30333743366 101.93018457736 588.48302493366 99.57862207736 586.96739993366 97.00049707736 C 585.45177493366 94.42237207736 584.27989993366 91.65674707736 583.45177493366 88.70362207736 C 582.62364993366 85.75049707736 582.20958743366 82.68018457736 582.20958743366 79.49268457736 C 582.20958743366 76.30518457736 582.62364993366 73.22705957736 583.45177493366 70.25830957736 C 584.27989993366 67.28955957736 585.45177493366 64.52393457736 586.96739993366 61.96143457736 C 588.48302493366 59.39893457736 590.30333743366 57.05518457736 592.42833743366 54.93018457736 C 594.55333743366 52.80518457736 596.90489993366 50.99268457736 599.48302493366 49.49268457736 C 602.06114993366 47.99268457736 604.82677493366 46.82862207736 607.77989993366 46.00049707736 C 610.73302493366 45.17237207736 613.80333743366 44.75830957736 616.99083743366 44.75830957736 C 620.17833743366 44.75830957736 623.25646243366 45.17237207736 626.22521243366 46.00049707736 C 629.19396243366 46.82862207736 631.95958743366 47.99268457736 634.52208743366 49.49268457736 C 637.08458743366 50.99268457736 639.42833743366 52.80518457736 641.55333743366 54.93018457736 C 643.67833743366 57.05518457736 645.49083743366 59.39893457736 646.99083743366 61.96143457736 C 648.49083743366 64.52393457736 649.65489993366 67.28955957736 650.48302493366 70.25830957736 C 651.31114993366 73.22705957736 651.72521243366 76.30518457736 651.72521243366 79.49268457736 Z M 638.36583743366 79.49268457736 C 638.36583743366 76.55518457736 637.80333743366 73.78174707736 636.67833743366 71.17237207736 C 635.55333743366 68.56299707736 634.02989993366 66.29737207736 632.10802493366 64.37549707736 C 630.18614993366 62.45362207736 627.92052493366 60.93018457736 625.31114993366 59.80518457736 C 622.70177493366 58.68018457736 619.92833743366 58.11768457736 616.99083743366 58.11768457736 C 614.02208743366 58.11768457736 611.24083743366 58.68018457736 608.64708743366 59.80518457736 C 606.05333743366 60.93018457736 603.78771243366 62.45362207736 601.85021243366 64.37549707736 C 599.91271243366 66.29737207736 598.38146243366 68.56299707736 597.25646243366 71.17237207736 C 596.13146243366 73.78174707736 595.56896243366 76.55518457736 595.56896243366 79.49268457736 C 595.56896243366 82.43018457736 596.13146243366 85.18799707736 597.25646243366 87.76612207736 C 598.38146243366 90.34424707736 599.91271243366 92.60205957736 601.85021243366 94.53955957736 C 603.78771243366 96.47705957736 606.05333743366 98.00830957736 608.64708743366 99.13330957736 C 611.24083743366 100.25830957736 614.02208743366 100.82080957736 616.99083743366 100.82080957736 C 619.92833743366 100.82080957736 622.70177493366 100.25830957736 625.31114993366 99.13330957736 C 627.92052493366 98.00830957736 630.18614993366 96.47705957736 632.10802493366 94.53955957736 C 634.02989993366 92.60205957736 635.55333743366 90.34424707736 636.67833743366 87.76612207736 C 637.80333743366 85.18799707736 638.36583743366 82.43018457736 638.36583743366 79.49268457736 Z M 676.87083743366 59.05518457736 L 676.87083743366 85.96143457736 L 690.32396243366 85.96143457736 C 692.16771243366 85.96143457736 693.90208743366 85.60987207736 695.52708743366 84.90674707736 C 697.15208743366 84.20362207736 698.57396243366 83.24268457736 699.79271243366 82.02393457736 C 701.01146243366 80.80518457736 701.97239993366 79.37549707736 702.67552493366 77.73487207736 C 703.37864993366 76.09424707736 703.73021243366 74.35205957736 703.73021243366 72.50830957736 C 703.73021243366 70.66455957736 703.37864993366 68.92237207736 702.67552493366 67.28174707736 C 701.97239993366 65.64112207736 701.01146243366 64.21143457736 699.79271243366 62.99268457736 C 698.57396243366 61.77393457736 697.15208743366 60.81299707736 695.52708743366 60.10987207736 C 693.90208743366 59.40674707736 692.16771243366 59.05518457736 690.32396243366 59.05518457736 L 676.87083743366 59.05518457736 Z M 676.87083743366 112.82080957736 L 663.41771243366 112.82080957736 L 663.41771243366 45.60205957736 L 690.32396243366 45.60205957736 C 692.79271243366 45.60205957736 695.16771243366 45.92237207736 697.44896243366 46.56299707736 C 699.73021243366 47.20362207736 701.86302493366 48.10987207736 703.84739993366 49.28174707736 C 705.83177493366 50.45362207736 707.64427493366 51.85987207736 709.28489993366 53.50049707736 C 710.92552493366 55.14112207736 712.33177493366 56.96143457736 713.50364993366 58.96143457736 C 714.67552493366 60.96143457736 715.58177493366 63.10205957736 716.22239993366 65.38330957736 C 716.86302493366 67.66455957736 717.18333743366 70.03955957736 717.18333743366 72.50830957736 C 717.18333743366 76.19580957736 716.48021243366 79.67237207736 715.07396243366 82.93799707736 C 713.66771243366 86.20362207736 711.74583743366 89.05518457736 709.30833743366 91.49268457736 C 706.87083743366 93.93018457736 704.01927493366 95.85205957736 700.75364993366 97.25830957736 C 697.48802493366 98.66455957736 694.01146243366 99.36768457736 690.32396243366 99.36768457736 L 676.87083743366 99.36768457736 L 676.87083743366 112.82080957736 Z M 741.39146243366 112.82080957736 L 727.93833743366 112.82080957736 L 727.93833743366 45.60205957736 L 741.39146243366 45.60205957736 L 741.39146243366 112.82080957736 Z M 796.30271243366 85.96143457736 L 796.30271243366 72.50830957736 C 796.30271243366 70.66455957736 795.95114993366 68.92237207736 795.24802493366 67.28174707736 C 794.54489993366 65.64112207736 793.58396243366 64.21143457736 792.36521243366 62.99268457736 C 791.14646243366 61.77393457736 789.71677493366 60.81299707736 788.07614993366 60.10987207736 C 786.43552493366 59.40674707736 784.69333743366 59.05518457736 782.84958743366 59.05518457736 C 781.00583743366 59.05518457736 779.26364993366 59.40674707736 777.62302493366 60.10987207736 C 775.98239993366 60.81299707736 774.55271243366 61.77393457736 773.33396243366 62.99268457736 C 772.11521243366 64.21143457736 771.15427493366 65.64112207736 770.45114993366 67.28174707736 C 769.74802493366 68.92237207736 769.39646243366 70.66455957736 769.39646243366 72.50830957736 L 769.39646243366 85.96143457736 L 796.30271243366 85.96143457736 Z M 809.75583743366 112.82080957736 L 796.30271243366 112.82080957736 L 796.30271243366 99.36768457736 L 769.39646243366 99.36768457736 L 769.39646243366 112.82080957736 L 755.99021243366 112.82080957736 L 755.99021243366 72.50830957736 C 755.99021243366 68.78955957736 756.69333743366 65.29737207736 758.09958743366 62.03174707736 C 759.50583743366 58.76612207736 761.41989993366 55.91455957736 763.84177493366 53.47705957736 C 766.26364993366 51.03955957736 769.10739993366 49.11768457736 772.37302493366 47.71143457736 C 775.63864993366 46.30518457736 779.13083743366 45.60205957736 782.84958743366 45.60205957736 C 786.56833743366 45.60205957736 790.06052493366 46.30518457736 793.32614993366 47.71143457736 C 796.59177493366 49.11768457736 799.44333743366 51.03955957736 801.88083743366 53.47705957736 C 804.31833743366 55.91455957736 806.24021243366 58.76612207736 807.64646243366 62.03174707736 C 809.05271243366 65.29737207736 809.75583743366 68.78955957736 809.75583743366 72.50830957736 L 809.75583743366 112.82080957736 Z"/></svg>